<?xml version="1.0" encoding="utf-8" standalone="no"?>
<!DOCTYPE svg PUBLIC "-//W3C//DTD SVG 1.1//EN"
  "http://www.w3.org/Graphics/SVG/1.1/DTD/svg11.dtd">
<svg xmlns:xlink="http://www.w3.org/1999/xlink" width="432pt" height="288pt" viewBox="0 0 432 288" xmlns="http://www.w3.org/2000/svg" version="1.1">
 <metadata>
  <rdf:RDF xmlns:dc="http://purl.org/dc/elements/1.1/" xmlns:cc="http://creativecommons.org/ns#" xmlns:rdf="http://www.w3.org/1999/02/22-rdf-syntax-ns#">
   <cc:Work>
    <dc:type rdf:resource="http://purl.org/dc/dcmitype/StillImage"/>
    <dc:date>2022-06-01T19:28:25.704975</dc:date>
    <dc:format>image/svg+xml</dc:format>
    <dc:creator>
     <cc:Agent>
      <dc:title>Matplotlib v3.5.1, https://matplotlib.org/</dc:title>
     </cc:Agent>
    </dc:creator>
   </cc:Work>
  </rdf:RDF>
 </metadata>
 <defs>
  <style type="text/css">*{stroke-linejoin: round; stroke-linecap: butt}</style>
 </defs>
 <g id="figure_1">
  <g id="patch_1">
   <path d="M 0 288 
L 432 288 
L 432 0 
L 0 0 
L 0 288 
z
" style="fill: none"/>
  </g>
  <g id="axes_1">
   <g id="patch_2">
    <path d="M 54 252 
L 388.8 252 
L 388.8 34.56 
L 54 34.56 
z
" style="fill: #ffffff"/>
   </g>
   <g id="patch_3">
    <path d="M 69.218182 252 
L 373.581818 252 
L 373.581818 92.544 
L 69.218182 92.544 
z
" clip-path="url(#pc975673cfa)" style="fill: #1f77b4"/>
   </g>
   <g id="patch_4">
    <path d="M 69.218182 252 
L 373.581818 252 
L 373.581818 89.6448 
L 69.218182 89.6448 
z
" clip-path="url(#pc975673cfa)" style="fill: #1f77b4"/>
   </g>
   <g id="patch_5">
    <path d="M 69.218182 252 
L 373.581818 252 
L 373.581818 75.1488 
L 69.218182 75.1488 
z
" clip-path="url(#pc975673cfa)" style="fill: #1f77b4"/>
   </g>
   <g id="patch_6">
    <path d="M 69.218182 252 
L 373.581818 252 
L 373.581818 75.1488 
L 69.218182 75.1488 
z
" clip-path="url(#pc975673cfa)" style="fill: #1f77b4"/>
   </g>
   <g id="patch_7">
    <path d="M 69.218182 252 
L 373.581818 252 
L 373.581818 75.1488 
L 69.218182 75.1488 
z
" clip-path="url(#pc975673cfa)" style="fill: #1f77b4"/>
   </g>
   <g id="patch_8">
    <path d="M 69.218182 252 
L 373.581818 252 
L 373.581818 80.9472 
L 69.218182 80.9472 
z
" clip-path="url(#pc975673cfa)" style="fill: #1f77b4"/>
   </g>
   <g id="patch_9">
    <path d="M 69.218182 252 
L 373.581818 252 
L 373.581818 83.8464 
L 69.218182 83.8464 
z
" clip-path="url(#pc975673cfa)" style="fill: #1f77b4"/>
   </g>
   <g id="patch_10">
    <path d="M 69.218182 252 
L 373.581818 252 
L 373.581818 83.8464 
L 69.218182 83.8464 
z
" clip-path="url(#pc975673cfa)" style="fill: #1f77b4"/>
   </g>
   <g id="patch_11">
    <path d="M 69.218182 252 
L 373.581818 252 
L 373.581818 83.8464 
L 69.218182 83.8464 
z
" clip-path="url(#pc975673cfa)" style="fill: #1f77b4"/>
   </g>
   <g id="patch_12">
    <path d="M 69.218182 252 
L 373.581818 252 
L 373.581818 89.6448 
L 69.218182 89.6448 
z
" clip-path="url(#pc975673cfa)" style="fill: #1f77b4"/>
   </g>
   <g id="patch_13">
    <path d="M 69.218182 252 
L 373.581818 252 
L 373.581818 78.048 
L 69.218182 78.048 
z
" clip-path="url(#pc975673cfa)" style="fill: #1f77b4"/>
   </g>
   <g id="patch_14">
    <path d="M 69.218182 252 
L 373.581818 252 
L 373.581818 78.048 
L 69.218182 78.048 
z
" clip-path="url(#pc975673cfa)" style="fill: #1f77b4"/>
   </g>
   <g id="patch_15">
    <path d="M 69.218182 252 
L 373.581818 252 
L 373.581818 80.9472 
L 69.218182 80.9472 
z
" clip-path="url(#pc975673cfa)" style="fill: #1f77b4"/>
   </g>
   <g id="patch_16">
    <path d="M 69.218182 92.544 
L 373.581818 92.544 
L 373.581818 57.7536 
L 69.218182 57.7536 
z
" clip-path="url(#pc975673cfa)" style="fill: #ff7f0e"/>
   </g>
   <g id="patch_17">
    <path d="M 69.218182 89.6448 
L 373.581818 89.6448 
L 373.581818 57.7536 
L 69.218182 57.7536 
z
" clip-path="url(#pc975673cfa)" style="fill: #ff7f0e"/>
   </g>
   <g id="patch_18">
    <path d="M 69.218182 75.1488 
L 373.581818 75.1488 
L 373.581818 51.9552 
L 69.218182 51.9552 
z
" clip-path="url(#pc975673cfa)" style="fill: #ff7f0e"/>
   </g>
   <g id="patch_19">
    <path d="M 69.218182 75.1488 
L 373.581818 75.1488 
L 373.581818 51.9552 
L 69.218182 51.9552 
z
" clip-path="url(#pc975673cfa)" style="fill: #ff7f0e"/>
   </g>
   <g id="patch_20">
    <path d="M 69.218182 75.1488 
L 373.581818 75.1488 
L 373.581818 54.8544 
L 69.218182 54.8544 
z
" clip-path="url(#pc975673cfa)" style="fill: #ff7f0e"/>
   </g>
   <g id="patch_21">
    <path d="M 69.218182 80.9472 
L 373.581818 80.9472 
L 373.581818 57.7536 
L 69.218182 57.7536 
z
" clip-path="url(#pc975673cfa)" style="fill: #ff7f0e"/>
   </g>
   <g id="patch_22">
    <path d="M 69.218182 83.8464 
L 373.581818 83.8464 
L 373.581818 60.6528 
L 69.218182 60.6528 
z
" clip-path="url(#pc975673cfa)" style="fill: #ff7f0e"/>
   </g>
   <g id="patch_23">
    <path d="M 69.218182 83.8464 
L 373.581818 83.8464 
L 373.581818 60.6528 
L 69.218182 60.6528 
z
" clip-path="url(#pc975673cfa)" style="fill: #ff7f0e"/>
   </g>
   <g id="patch_24">
    <path d="M 69.218182 83.8464 
L 373.581818 83.8464 
L 373.581818 63.552 
L 69.218182 63.552 
z
" clip-path="url(#pc975673cfa)" style="fill: #ff7f0e"/>
   </g>
   <g id="patch_25">
    <path d="M 69.218182 89.6448 
L 373.581818 89.6448 
L 373.581818 54.8544 
L 69.218182 54.8544 
z
" clip-path="url(#pc975673cfa)" style="fill: #ff7f0e"/>
   </g>
   <g id="patch_26">
    <path d="M 69.218182 78.048 
L 373.581818 78.048 
L 373.581818 57.7536 
L 69.218182 57.7536 
z
" clip-path="url(#pc975673cfa)" style="fill: #ff7f0e"/>
   </g>
   <g id="patch_27">
    <path d="M 69.218182 78.048 
L 373.581818 78.048 
L 373.581818 51.9552 
L 69.218182 51.9552 
z
" clip-path="url(#pc975673cfa)" style="fill: #ff7f0e"/>
   </g>
   <g id="patch_28">
    <path d="M 69.218182 80.9472 
L 373.581818 80.9472 
L 373.581818 57.7536 
L 69.218182 57.7536 
z
" clip-path="url(#pc975673cfa)" style="fill: #ff7f0e"/>
   </g>
   <g id="patch_29">
    <path d="M 69.218182 57.7536 
L 373.581818 57.7536 
L 373.581818 43.2576 
L 69.218182 43.2576 
z
" clip-path="url(#pc975673cfa)" style="fill: #2ca02c"/>
   </g>
   <g id="patch_30">
    <path d="M 69.218182 57.7536 
L 373.581818 57.7536 
L 373.581818 40.3584 
L 69.218182 40.3584 
z
" clip-path="url(#pc975673cfa)" style="fill: #2ca02c"/>
   </g>
   <g id="patch_31">
    <path d="M 69.218182 51.9552 
L 373.581818 51.9552 
L 373.581818 34.56 
L 69.218182 34.56 
z
" clip-path="url(#pc975673cfa)" style="fill: #2ca02c"/>
   </g>
   <g id="patch_32">
    <path d="M 69.218182 51.9552 
L 373.581818 51.9552 
L 373.581818 40.3584 
L 69.218182 40.3584 
z
" clip-path="url(#pc975673cfa)" style="fill: #2ca02c"/>
   </g>
   <g id="patch_33">
    <path d="M 69.218182 54.8544 
L 373.581818 54.8544 
L 373.581818 37.4592 
L 69.218182 37.4592 
z
" clip-path="url(#pc975673cfa)" style="fill: #2ca02c"/>
   </g>
   <g id="patch_34">
    <path d="M 69.218182 57.7536 
L 373.581818 57.7536 
L 373.581818 40.3584 
L 69.218182 40.3584 
z
" clip-path="url(#pc975673cfa)" style="fill: #2ca02c"/>
   </g>
   <g id="patch_35">
    <path d="M 69.218182 60.6528 
L 373.581818 60.6528 
L 373.581818 43.2576 
L 69.218182 43.2576 
z
" clip-path="url(#pc975673cfa)" style="fill: #2ca02c"/>
   </g>
   <g id="patch_36">
    <path d="M 69.218182 60.6528 
L 373.581818 60.6528 
L 373.581818 43.2576 
L 69.218182 43.2576 
z
" clip-path="url(#pc975673cfa)" style="fill: #2ca02c"/>
   </g>
   <g id="patch_37">
    <path d="M 69.218182 63.552 
L 373.581818 63.552 
L 373.581818 43.2576 
L 69.218182 43.2576 
z
" clip-path="url(#pc975673cfa)" style="fill: #2ca02c"/>
   </g>
   <g id="patch_38">
    <path d="M 69.218182 54.8544 
L 373.581818 54.8544 
L 373.581818 40.3584 
L 69.218182 40.3584 
z
" clip-path="url(#pc975673cfa)" style="fill: #2ca02c"/>
   </g>
   <g id="patch_39">
    <path d="M 69.218182 57.7536 
L 373.581818 57.7536 
L 373.581818 37.4592 
L 69.218182 37.4592 
z
" clip-path="url(#pc975673cfa)" style="fill: #2ca02c"/>
   </g>
   <g id="patch_40">
    <path d="M 69.218182 51.9552 
L 373.581818 51.9552 
L 373.581818 37.4592 
L 69.218182 37.4592 
z
" clip-path="url(#pc975673cfa)" style="fill: #2ca02c"/>
   </g>
   <g id="patch_41">
    <path d="M 69.218182 57.7536 
L 373.581818 57.7536 
L 373.581818 43.2576 
L 69.218182 43.2576 
z
" clip-path="url(#pc975673cfa)" style="fill: #2ca02c"/>
   </g>
   <g id="patch_42">
    <path d="M 69.218182 43.2576 
L 373.581818 43.2576 
L 373.581818 34.56 
L 69.218182 34.56 
z
" clip-path="url(#pc975673cfa)" style="fill: #d62728"/>
   </g>
   <g id="patch_43">
    <path d="M 69.218182 40.3584 
L 373.581818 40.3584 
L 373.581818 34.56 
L 69.218182 34.56 
z
" clip-path="url(#pc975673cfa)" style="fill: #d62728"/>
   </g>
   <g id="patch_44">
    <path d="M 69.218182 34.56 
L 373.581818 34.56 
L 373.581818 34.56 
L 69.218182 34.56 
z
" clip-path="url(#pc975673cfa)" style="fill: #d62728"/>
   </g>
   <g id="patch_45">
    <path d="M 69.218182 40.3584 
L 373.581818 40.3584 
L 373.581818 34.56 
L 69.218182 34.56 
z
" clip-path="url(#pc975673cfa)" style="fill: #d62728"/>
   </g>
   <g id="patch_46">
    <path d="M 69.218182 37.4592 
L 373.581818 37.4592 
L 373.581818 34.56 
L 69.218182 34.56 
z
" clip-path="url(#pc975673cfa)" style="fill: #d62728"/>
   </g>
   <g id="patch_47">
    <path d="M 69.218182 40.3584 
L 373.581818 40.3584 
L 373.581818 34.56 
L 69.218182 34.56 
z
" clip-path="url(#pc975673cfa)" style="fill: #d62728"/>
   </g>
   <g id="patch_48">
    <path d="M 69.218182 43.2576 
L 373.581818 43.2576 
L 373.581818 34.56 
L 69.218182 34.56 
z
" clip-path="url(#pc975673cfa)" style="fill: #d62728"/>
   </g>
   <g id="patch_49">
    <path d="M 69.218182 43.2576 
L 373.581818 43.2576 
L 373.581818 34.56 
L 69.218182 34.56 
z
" clip-path="url(#pc975673cfa)" style="fill: #d62728"/>
   </g>
   <g id="patch_50">
    <path d="M 69.218182 43.2576 
L 373.581818 43.2576 
L 373.581818 34.56 
L 69.218182 34.56 
z
" clip-path="url(#pc975673cfa)" style="fill: #d62728"/>
   </g>
   <g id="patch_51">
    <path d="M 69.218182 40.3584 
L 373.581818 40.3584 
L 373.581818 34.56 
L 69.218182 34.56 
z
" clip-path="url(#pc975673cfa)" style="fill: #d62728"/>
   </g>
   <g id="patch_52">
    <path d="M 69.218182 37.4592 
L 373.581818 37.4592 
L 373.581818 34.56 
L 69.218182 34.56 
z
" clip-path="url(#pc975673cfa)" style="fill: #d62728"/>
   </g>
   <g id="patch_53">
    <path d="M 69.218182 37.4592 
L 373.581818 37.4592 
L 373.581818 34.56 
L 69.218182 34.56 
z
" clip-path="url(#pc975673cfa)" style="fill: #d62728"/>
   </g>
   <g id="patch_54">
    <path d="M 69.218182 43.2576 
L 373.581818 43.2576 
L 373.581818 34.56 
L 69.218182 34.56 
z
" clip-path="url(#pc975673cfa)" style="fill: #d62728"/>
   </g>
   <g id="matplotlib.axis_1">
    <g id="xtick_1">
     <g id="line2d_1">
      <defs>
       <path id="me8f66b76f8" d="M 0 0 
L 0 3.5 
" style="stroke: #000000; stroke-width: 0.8"/>
      </defs>
      <g>
       <use xlink:href="#me8f66b76f8" x="69.218182" y="252" style="stroke: #000000; stroke-width: 0.8"/>
      </g>
     </g>
    </g>
   </g>
   <g id="matplotlib.axis_2">
    <g id="ytick_1">
     <g id="line2d_2">
      <defs>
       <path id="m7457dff664" d="M 0 0 
L -3.5 0 
" style="stroke: #000000; stroke-width: 0.8"/>
      </defs>
      <g>
       <use xlink:href="#m7457dff664" x="54" y="252" style="stroke: #000000; stroke-width: 0.8"/>
      </g>
     </g>
     <g id="text_1">
      <!-- 0 -->
      <g transform="translate(40.6375 255.799219)scale(0.1 -0.1)">
       <defs>
        <path id="DejaVuSans-30" d="M 2034 4250 
Q 1547 4250 1301 3770 
Q 1056 3291 1056 2328 
Q 1056 1369 1301 889 
Q 1547 409 2034 409 
Q 2525 409 2770 889 
Q 3016 1369 3016 2328 
Q 3016 3291 2770 3770 
Q 2525 4250 2034 4250 
z
M 2034 4750 
Q 2819 4750 3233 4129 
Q 3647 3509 3647 2328 
Q 3647 1150 3233 529 
Q 2819 -91 2034 -91 
Q 1250 -91 836 529 
Q 422 1150 422 2328 
Q 422 3509 836 4129 
Q 1250 4750 2034 4750 
z
" transform="scale(0.015625)"/>
       </defs>
       <use xlink:href="#DejaVuSans-30"/>
      </g>
     </g>
    </g>
    <g id="ytick_2">
     <g id="line2d_3">
      <g>
       <use xlink:href="#m7457dff664" x="54" y="208.512" style="stroke: #000000; stroke-width: 0.8"/>
      </g>
     </g>
     <g id="text_2">
      <!-- 20 -->
      <g transform="translate(34.275 212.311219)scale(0.1 -0.1)">
       <defs>
        <path id="DejaVuSans-32" d="M 1228 531 
L 3431 531 
L 3431 0 
L 469 0 
L 469 531 
Q 828 903 1448 1529 
Q 2069 2156 2228 2338 
Q 2531 2678 2651 2914 
Q 2772 3150 2772 3378 
Q 2772 3750 2511 3984 
Q 2250 4219 1831 4219 
Q 1534 4219 1204 4116 
Q 875 4013 500 3803 
L 500 4441 
Q 881 4594 1212 4672 
Q 1544 4750 1819 4750 
Q 2544 4750 2975 4387 
Q 3406 4025 3406 3419 
Q 3406 3131 3298 2873 
Q 3191 2616 2906 2266 
Q 2828 2175 2409 1742 
Q 1991 1309 1228 531 
z
" transform="scale(0.015625)"/>
       </defs>
       <use xlink:href="#DejaVuSans-32"/>
       <use xlink:href="#DejaVuSans-30" x="63.623047"/>
      </g>
     </g>
    </g>
    <g id="ytick_3">
     <g id="line2d_4">
      <g>
       <use xlink:href="#m7457dff664" x="54" y="165.024" style="stroke: #000000; stroke-width: 0.8"/>
      </g>
     </g>
     <g id="text_3">
      <!-- 40 -->
      <g transform="translate(34.275 168.823219)scale(0.1 -0.1)">
       <defs>
        <path id="DejaVuSans-34" d="M 2419 4116 
L 825 1625 
L 2419 1625 
L 2419 4116 
z
M 2253 4666 
L 3047 4666 
L 3047 1625 
L 3713 1625 
L 3713 1100 
L 3047 1100 
L 3047 0 
L 2419 0 
L 2419 1100 
L 313 1100 
L 313 1709 
L 2253 4666 
z
" transform="scale(0.015625)"/>
       </defs>
       <use xlink:href="#DejaVuSans-34"/>
       <use xlink:href="#DejaVuSans-30" x="63.623047"/>
      </g>
     </g>
    </g>
    <g id="ytick_4">
     <g id="line2d_5">
      <g>
       <use xlink:href="#m7457dff664" x="54" y="121.536" style="stroke: #000000; stroke-width: 0.8"/>
      </g>
     </g>
     <g id="text_4">
      <!-- 60 -->
      <g transform="translate(34.275 125.335219)scale(0.1 -0.1)">
       <defs>
        <path id="DejaVuSans-36" d="M 2113 2584 
Q 1688 2584 1439 2293 
Q 1191 2003 1191 1497 
Q 1191 994 1439 701 
Q 1688 409 2113 409 
Q 2538 409 2786 701 
Q 3034 994 3034 1497 
Q 3034 2003 2786 2293 
Q 2538 2584 2113 2584 
z
M 3366 4563 
L 3366 3988 
Q 3128 4100 2886 4159 
Q 2644 4219 2406 4219 
Q 1781 4219 1451 3797 
Q 1122 3375 1075 2522 
Q 1259 2794 1537 2939 
Q 1816 3084 2150 3084 
Q 2853 3084 3261 2657 
Q 3669 2231 3669 1497 
Q 3669 778 3244 343 
Q 2819 -91 2113 -91 
Q 1303 -91 875 529 
Q 447 1150 447 2328 
Q 447 3434 972 4092 
Q 1497 4750 2381 4750 
Q 2619 4750 2861 4703 
Q 3103 4656 3366 4563 
z
" transform="scale(0.015625)"/>
       </defs>
       <use xlink:href="#DejaVuSans-36"/>
       <use xlink:href="#DejaVuSans-30" x="63.623047"/>
      </g>
     </g>
    </g>
    <g id="ytick_5">
     <g id="line2d_6">
      <g>
       <use xlink:href="#m7457dff664" x="54" y="78.048" style="stroke: #000000; stroke-width: 0.8"/>
      </g>
     </g>
     <g id="text_5">
      <!-- 80 -->
      <g transform="translate(34.275 81.847219)scale(0.1 -0.1)">
       <defs>
        <path id="DejaVuSans-38" d="M 2034 2216 
Q 1584 2216 1326 1975 
Q 1069 1734 1069 1313 
Q 1069 891 1326 650 
Q 1584 409 2034 409 
Q 2484 409 2743 651 
Q 3003 894 3003 1313 
Q 3003 1734 2745 1975 
Q 2488 2216 2034 2216 
z
M 1403 2484 
Q 997 2584 770 2862 
Q 544 3141 544 3541 
Q 544 4100 942 4425 
Q 1341 4750 2034 4750 
Q 2731 4750 3128 4425 
Q 3525 4100 3525 3541 
Q 3525 3141 3298 2862 
Q 3072 2584 2669 2484 
Q 3125 2378 3379 2068 
Q 3634 1759 3634 1313 
Q 3634 634 3220 271 
Q 2806 -91 2034 -91 
Q 1263 -91 848 271 
Q 434 634 434 1313 
Q 434 1759 690 2068 
Q 947 2378 1403 2484 
z
M 1172 3481 
Q 1172 3119 1398 2916 
Q 1625 2713 2034 2713 
Q 2441 2713 2670 2916 
Q 2900 3119 2900 3481 
Q 2900 3844 2670 4047 
Q 2441 4250 2034 4250 
Q 1625 4250 1398 4047 
Q 1172 3844 1172 3481 
z
" transform="scale(0.015625)"/>
       </defs>
       <use xlink:href="#DejaVuSans-38"/>
       <use xlink:href="#DejaVuSans-30" x="63.623047"/>
      </g>
     </g>
    </g>
    <g id="ytick_6">
     <g id="line2d_7">
      <g>
       <use xlink:href="#m7457dff664" x="54" y="34.56" style="stroke: #000000; stroke-width: 0.8"/>
      </g>
     </g>
     <g id="text_6">
      <!-- 100 -->
      <g transform="translate(27.9125 38.359219)scale(0.1 -0.1)">
       <defs>
        <path id="DejaVuSans-31" d="M 794 531 
L 1825 531 
L 1825 4091 
L 703 3866 
L 703 4441 
L 1819 4666 
L 2450 4666 
L 2450 531 
L 3481 531 
L 3481 0 
L 794 0 
L 794 531 
z
" transform="scale(0.015625)"/>
       </defs>
       <use xlink:href="#DejaVuSans-31"/>
       <use xlink:href="#DejaVuSans-30" x="63.623047"/>
       <use xlink:href="#DejaVuSans-30" x="127.246094"/>
      </g>
     </g>
    </g>
    <g id="text_7">
     <!-- Percentile -->
     <g transform="translate(21.832812 167.9425)rotate(-90)scale(0.1 -0.1)">
      <defs>
       <path id="DejaVuSans-50" d="M 1259 4147 
L 1259 2394 
L 2053 2394 
Q 2494 2394 2734 2622 
Q 2975 2850 2975 3272 
Q 2975 3691 2734 3919 
Q 2494 4147 2053 4147 
L 1259 4147 
z
M 628 4666 
L 2053 4666 
Q 2838 4666 3239 4311 
Q 3641 3956 3641 3272 
Q 3641 2581 3239 2228 
Q 2838 1875 2053 1875 
L 1259 1875 
L 1259 0 
L 628 0 
L 628 4666 
z
" transform="scale(0.015625)"/>
       <path id="DejaVuSans-65" d="M 3597 1894 
L 3597 1613 
L 953 1613 
Q 991 1019 1311 708 
Q 1631 397 2203 397 
Q 2534 397 2845 478 
Q 3156 559 3463 722 
L 3463 178 
Q 3153 47 2828 -22 
Q 2503 -91 2169 -91 
Q 1331 -91 842 396 
Q 353 884 353 1716 
Q 353 2575 817 3079 
Q 1281 3584 2069 3584 
Q 2775 3584 3186 3129 
Q 3597 2675 3597 1894 
z
M 3022 2063 
Q 3016 2534 2758 2815 
Q 2500 3097 2075 3097 
Q 1594 3097 1305 2825 
Q 1016 2553 972 2059 
L 3022 2063 
z
" transform="scale(0.015625)"/>
       <path id="DejaVuSans-72" d="M 2631 2963 
Q 2534 3019 2420 3045 
Q 2306 3072 2169 3072 
Q 1681 3072 1420 2755 
Q 1159 2438 1159 1844 
L 1159 0 
L 581 0 
L 581 3500 
L 1159 3500 
L 1159 2956 
Q 1341 3275 1631 3429 
Q 1922 3584 2338 3584 
Q 2397 3584 2469 3576 
Q 2541 3569 2628 3553 
L 2631 2963 
z
" transform="scale(0.015625)"/>
       <path id="DejaVuSans-63" d="M 3122 3366 
L 3122 2828 
Q 2878 2963 2633 3030 
Q 2388 3097 2138 3097 
Q 1578 3097 1268 2742 
Q 959 2388 959 1747 
Q 959 1106 1268 751 
Q 1578 397 2138 397 
Q 2388 397 2633 464 
Q 2878 531 3122 666 
L 3122 134 
Q 2881 22 2623 -34 
Q 2366 -91 2075 -91 
Q 1284 -91 818 406 
Q 353 903 353 1747 
Q 353 2603 823 3093 
Q 1294 3584 2113 3584 
Q 2378 3584 2631 3529 
Q 2884 3475 3122 3366 
z
" transform="scale(0.015625)"/>
       <path id="DejaVuSans-6e" d="M 3513 2113 
L 3513 0 
L 2938 0 
L 2938 2094 
Q 2938 2591 2744 2837 
Q 2550 3084 2163 3084 
Q 1697 3084 1428 2787 
Q 1159 2491 1159 1978 
L 1159 0 
L 581 0 
L 581 3500 
L 1159 3500 
L 1159 2956 
Q 1366 3272 1645 3428 
Q 1925 3584 2291 3584 
Q 2894 3584 3203 3211 
Q 3513 2838 3513 2113 
z
" transform="scale(0.015625)"/>
       <path id="DejaVuSans-74" d="M 1172 4494 
L 1172 3500 
L 2356 3500 
L 2356 3053 
L 1172 3053 
L 1172 1153 
Q 1172 725 1289 603 
Q 1406 481 1766 481 
L 2356 481 
L 2356 0 
L 1766 0 
Q 1100 0 847 248 
Q 594 497 594 1153 
L 594 3053 
L 172 3053 
L 172 3500 
L 594 3500 
L 594 4494 
L 1172 4494 
z
" transform="scale(0.015625)"/>
       <path id="DejaVuSans-69" d="M 603 3500 
L 1178 3500 
L 1178 0 
L 603 0 
L 603 3500 
z
M 603 4863 
L 1178 4863 
L 1178 4134 
L 603 4134 
L 603 4863 
z
" transform="scale(0.015625)"/>
       <path id="DejaVuSans-6c" d="M 603 4863 
L 1178 4863 
L 1178 0 
L 603 0 
L 603 4863 
z
" transform="scale(0.015625)"/>
      </defs>
      <use xlink:href="#DejaVuSans-50"/>
      <use xlink:href="#DejaVuSans-65" x="56.677734"/>
      <use xlink:href="#DejaVuSans-72" x="118.201172"/>
      <use xlink:href="#DejaVuSans-63" x="157.064453"/>
      <use xlink:href="#DejaVuSans-65" x="212.044922"/>
      <use xlink:href="#DejaVuSans-6e" x="273.568359"/>
      <use xlink:href="#DejaVuSans-74" x="336.947266"/>
      <use xlink:href="#DejaVuSans-69" x="376.15625"/>
      <use xlink:href="#DejaVuSans-6c" x="403.939453"/>
      <use xlink:href="#DejaVuSans-65" x="431.722656"/>
     </g>
    </g>
   </g>
   <g id="line2d_8">
    <path d="M 69.218182 123.7104 
L 373.581818 123.7104 
" clip-path="url(#pc975673cfa)" style="fill: none; stroke-dasharray: 11.1,4.8; stroke-dashoffset: 0; stroke: #000000; stroke-width: 3"/>
   </g>
   <g id="patch_55">
    <path d="M 54 252 
L 54 34.56 
" style="fill: none; stroke: #000000; stroke-width: 0.8; stroke-linejoin: miter; stroke-linecap: square"/>
   </g>
   <g id="patch_56">
    <path d="M 388.8 252 
L 388.8 34.56 
" style="fill: none; stroke: #000000; stroke-width: 0.8; stroke-linejoin: miter; stroke-linecap: square"/>
   </g>
   <g id="patch_57">
    <path d="M 54 252 
L 388.8 252 
" style="fill: none; stroke: #000000; stroke-width: 0.8; stroke-linejoin: miter; stroke-linecap: square"/>
   </g>
   <g id="patch_58">
    <path d="M 54 34.56 
L 388.8 34.56 
" style="fill: none; stroke: #000000; stroke-width: 0.8; stroke-linejoin: miter; stroke-linecap: square"/>
   </g>
   <g id="text_8">
    <!-- Accuracy NOML Circuit And Reported QAOA Accuracy -->
    <g transform="translate(61.57875 28.56)scale(0.12 -0.12)">
     <defs>
      <path id="DejaVuSans-41" d="M 2188 4044 
L 1331 1722 
L 3047 1722 
L 2188 4044 
z
M 1831 4666 
L 2547 4666 
L 4325 0 
L 3669 0 
L 3244 1197 
L 1141 1197 
L 716 0 
L 50 0 
L 1831 4666 
z
" transform="scale(0.015625)"/>
      <path id="DejaVuSans-75" d="M 544 1381 
L 544 3500 
L 1119 3500 
L 1119 1403 
Q 1119 906 1312 657 
Q 1506 409 1894 409 
Q 2359 409 2629 706 
Q 2900 1003 2900 1516 
L 2900 3500 
L 3475 3500 
L 3475 0 
L 2900 0 
L 2900 538 
Q 2691 219 2414 64 
Q 2138 -91 1772 -91 
Q 1169 -91 856 284 
Q 544 659 544 1381 
z
M 1991 3584 
L 1991 3584 
z
" transform="scale(0.015625)"/>
      <path id="DejaVuSans-61" d="M 2194 1759 
Q 1497 1759 1228 1600 
Q 959 1441 959 1056 
Q 959 750 1161 570 
Q 1363 391 1709 391 
Q 2188 391 2477 730 
Q 2766 1069 2766 1631 
L 2766 1759 
L 2194 1759 
z
M 3341 1997 
L 3341 0 
L 2766 0 
L 2766 531 
Q 2569 213 2275 61 
Q 1981 -91 1556 -91 
Q 1019 -91 701 211 
Q 384 513 384 1019 
Q 384 1609 779 1909 
Q 1175 2209 1959 2209 
L 2766 2209 
L 2766 2266 
Q 2766 2663 2505 2880 
Q 2244 3097 1772 3097 
Q 1472 3097 1187 3025 
Q 903 2953 641 2809 
L 641 3341 
Q 956 3463 1253 3523 
Q 1550 3584 1831 3584 
Q 2591 3584 2966 3190 
Q 3341 2797 3341 1997 
z
" transform="scale(0.015625)"/>
      <path id="DejaVuSans-79" d="M 2059 -325 
Q 1816 -950 1584 -1140 
Q 1353 -1331 966 -1331 
L 506 -1331 
L 506 -850 
L 844 -850 
Q 1081 -850 1212 -737 
Q 1344 -625 1503 -206 
L 1606 56 
L 191 3500 
L 800 3500 
L 1894 763 
L 2988 3500 
L 3597 3500 
L 2059 -325 
z
" transform="scale(0.015625)"/>
      <path id="DejaVuSans-20" transform="scale(0.015625)"/>
      <path id="DejaVuSans-4e" d="M 628 4666 
L 1478 4666 
L 3547 763 
L 3547 4666 
L 4159 4666 
L 4159 0 
L 3309 0 
L 1241 3903 
L 1241 0 
L 628 0 
L 628 4666 
z
" transform="scale(0.015625)"/>
      <path id="DejaVuSans-4f" d="M 2522 4238 
Q 1834 4238 1429 3725 
Q 1025 3213 1025 2328 
Q 1025 1447 1429 934 
Q 1834 422 2522 422 
Q 3209 422 3611 934 
Q 4013 1447 4013 2328 
Q 4013 3213 3611 3725 
Q 3209 4238 2522 4238 
z
M 2522 4750 
Q 3503 4750 4090 4092 
Q 4678 3434 4678 2328 
Q 4678 1225 4090 567 
Q 3503 -91 2522 -91 
Q 1538 -91 948 565 
Q 359 1222 359 2328 
Q 359 3434 948 4092 
Q 1538 4750 2522 4750 
z
" transform="scale(0.015625)"/>
      <path id="DejaVuSans-4d" d="M 628 4666 
L 1569 4666 
L 2759 1491 
L 3956 4666 
L 4897 4666 
L 4897 0 
L 4281 0 
L 4281 4097 
L 3078 897 
L 2444 897 
L 1241 4097 
L 1241 0 
L 628 0 
L 628 4666 
z
" transform="scale(0.015625)"/>
      <path id="DejaVuSans-4c" d="M 628 4666 
L 1259 4666 
L 1259 531 
L 3531 531 
L 3531 0 
L 628 0 
L 628 4666 
z
" transform="scale(0.015625)"/>
      <path id="DejaVuSans-43" d="M 4122 4306 
L 4122 3641 
Q 3803 3938 3442 4084 
Q 3081 4231 2675 4231 
Q 1875 4231 1450 3742 
Q 1025 3253 1025 2328 
Q 1025 1406 1450 917 
Q 1875 428 2675 428 
Q 3081 428 3442 575 
Q 3803 722 4122 1019 
L 4122 359 
Q 3791 134 3420 21 
Q 3050 -91 2638 -91 
Q 1578 -91 968 557 
Q 359 1206 359 2328 
Q 359 3453 968 4101 
Q 1578 4750 2638 4750 
Q 3056 4750 3426 4639 
Q 3797 4528 4122 4306 
z
" transform="scale(0.015625)"/>
      <path id="DejaVuSans-64" d="M 2906 2969 
L 2906 4863 
L 3481 4863 
L 3481 0 
L 2906 0 
L 2906 525 
Q 2725 213 2448 61 
Q 2172 -91 1784 -91 
Q 1150 -91 751 415 
Q 353 922 353 1747 
Q 353 2572 751 3078 
Q 1150 3584 1784 3584 
Q 2172 3584 2448 3432 
Q 2725 3281 2906 2969 
z
M 947 1747 
Q 947 1113 1208 752 
Q 1469 391 1925 391 
Q 2381 391 2643 752 
Q 2906 1113 2906 1747 
Q 2906 2381 2643 2742 
Q 2381 3103 1925 3103 
Q 1469 3103 1208 2742 
Q 947 2381 947 1747 
z
" transform="scale(0.015625)"/>
      <path id="DejaVuSans-52" d="M 2841 2188 
Q 3044 2119 3236 1894 
Q 3428 1669 3622 1275 
L 4263 0 
L 3584 0 
L 2988 1197 
Q 2756 1666 2539 1819 
Q 2322 1972 1947 1972 
L 1259 1972 
L 1259 0 
L 628 0 
L 628 4666 
L 2053 4666 
Q 2853 4666 3247 4331 
Q 3641 3997 3641 3322 
Q 3641 2881 3436 2590 
Q 3231 2300 2841 2188 
z
M 1259 4147 
L 1259 2491 
L 2053 2491 
Q 2509 2491 2742 2702 
Q 2975 2913 2975 3322 
Q 2975 3731 2742 3939 
Q 2509 4147 2053 4147 
L 1259 4147 
z
" transform="scale(0.015625)"/>
      <path id="DejaVuSans-70" d="M 1159 525 
L 1159 -1331 
L 581 -1331 
L 581 3500 
L 1159 3500 
L 1159 2969 
Q 1341 3281 1617 3432 
Q 1894 3584 2278 3584 
Q 2916 3584 3314 3078 
Q 3713 2572 3713 1747 
Q 3713 922 3314 415 
Q 2916 -91 2278 -91 
Q 1894 -91 1617 61 
Q 1341 213 1159 525 
z
M 3116 1747 
Q 3116 2381 2855 2742 
Q 2594 3103 2138 3103 
Q 1681 3103 1420 2742 
Q 1159 2381 1159 1747 
Q 1159 1113 1420 752 
Q 1681 391 2138 391 
Q 2594 391 2855 752 
Q 3116 1113 3116 1747 
z
" transform="scale(0.015625)"/>
      <path id="DejaVuSans-6f" d="M 1959 3097 
Q 1497 3097 1228 2736 
Q 959 2375 959 1747 
Q 959 1119 1226 758 
Q 1494 397 1959 397 
Q 2419 397 2687 759 
Q 2956 1122 2956 1747 
Q 2956 2369 2687 2733 
Q 2419 3097 1959 3097 
z
M 1959 3584 
Q 2709 3584 3137 3096 
Q 3566 2609 3566 1747 
Q 3566 888 3137 398 
Q 2709 -91 1959 -91 
Q 1206 -91 779 398 
Q 353 888 353 1747 
Q 353 2609 779 3096 
Q 1206 3584 1959 3584 
z
" transform="scale(0.015625)"/>
      <path id="DejaVuSans-51" d="M 2522 4238 
Q 1834 4238 1429 3725 
Q 1025 3213 1025 2328 
Q 1025 1447 1429 934 
Q 1834 422 2522 422 
Q 3209 422 3611 934 
Q 4013 1447 4013 2328 
Q 4013 3213 3611 3725 
Q 3209 4238 2522 4238 
z
M 3406 84 
L 4238 -825 
L 3475 -825 
L 2784 -78 
Q 2681 -84 2626 -87 
Q 2572 -91 2522 -91 
Q 1538 -91 948 567 
Q 359 1225 359 2328 
Q 359 3434 948 4092 
Q 1538 4750 2522 4750 
Q 3503 4750 4090 4092 
Q 4678 3434 4678 2328 
Q 4678 1516 4351 937 
Q 4025 359 3406 84 
z
" transform="scale(0.015625)"/>
     </defs>
     <use xlink:href="#DejaVuSans-41"/>
     <use xlink:href="#DejaVuSans-63" x="66.658203"/>
     <use xlink:href="#DejaVuSans-63" x="121.638672"/>
     <use xlink:href="#DejaVuSans-75" x="176.619141"/>
     <use xlink:href="#DejaVuSans-72" x="239.998047"/>
     <use xlink:href="#DejaVuSans-61" x="281.111328"/>
     <use xlink:href="#DejaVuSans-63" x="342.390625"/>
     <use xlink:href="#DejaVuSans-79" x="397.371094"/>
     <use xlink:href="#DejaVuSans-20" x="456.550781"/>
     <use xlink:href="#DejaVuSans-4e" x="488.337891"/>
     <use xlink:href="#DejaVuSans-4f" x="563.142578"/>
     <use xlink:href="#DejaVuSans-4d" x="641.853516"/>
     <use xlink:href="#DejaVuSans-4c" x="728.132812"/>
     <use xlink:href="#DejaVuSans-20" x="783.845703"/>
     <use xlink:href="#DejaVuSans-43" x="815.632812"/>
     <use xlink:href="#DejaVuSans-69" x="885.457031"/>
     <use xlink:href="#DejaVuSans-72" x="913.240234"/>
     <use xlink:href="#DejaVuSans-63" x="952.103516"/>
     <use xlink:href="#DejaVuSans-75" x="1007.083984"/>
     <use xlink:href="#DejaVuSans-69" x="1070.462891"/>
     <use xlink:href="#DejaVuSans-74" x="1098.246094"/>
     <use xlink:href="#DejaVuSans-20" x="1137.455078"/>
     <use xlink:href="#DejaVuSans-41" x="1169.242188"/>
     <use xlink:href="#DejaVuSans-6e" x="1237.650391"/>
     <use xlink:href="#DejaVuSans-64" x="1301.029297"/>
     <use xlink:href="#DejaVuSans-20" x="1364.505859"/>
     <use xlink:href="#DejaVuSans-52" x="1396.292969"/>
     <use xlink:href="#DejaVuSans-65" x="1461.275391"/>
     <use xlink:href="#DejaVuSans-70" x="1522.798828"/>
     <use xlink:href="#DejaVuSans-6f" x="1586.275391"/>
     <use xlink:href="#DejaVuSans-72" x="1647.457031"/>
     <use xlink:href="#DejaVuSans-74" x="1688.570312"/>
     <use xlink:href="#DejaVuSans-65" x="1727.779297"/>
     <use xlink:href="#DejaVuSans-64" x="1789.302734"/>
     <use xlink:href="#DejaVuSans-20" x="1852.779297"/>
     <use xlink:href="#DejaVuSans-51" x="1884.566406"/>
     <use xlink:href="#DejaVuSans-41" x="1963.277344"/>
     <use xlink:href="#DejaVuSans-4f" x="2029.935547"/>
     <use xlink:href="#DejaVuSans-41" x="2106.896484"/>
     <use xlink:href="#DejaVuSans-20" x="2175.304688"/>
     <use xlink:href="#DejaVuSans-41" x="2207.091797"/>
     <use xlink:href="#DejaVuSans-63" x="2273.75"/>
     <use xlink:href="#DejaVuSans-63" x="2328.730469"/>
     <use xlink:href="#DejaVuSans-75" x="2383.710938"/>
     <use xlink:href="#DejaVuSans-72" x="2447.089844"/>
     <use xlink:href="#DejaVuSans-61" x="2488.203125"/>
     <use xlink:href="#DejaVuSans-63" x="2549.482422"/>
     <use xlink:href="#DejaVuSans-79" x="2604.462891"/>
    </g>
   </g>
   <g id="legend_1">
    <g id="patch_59">
     <path d="M 189.379375 224.670625 
L 348.32 224.670625 
Q 350.32 224.670625 350.32 222.670625 
L 350.32 150.28 
Q 350.32 148.28 348.32 148.28 
L 189.379375 148.28 
Q 187.379375 148.28 187.379375 150.28 
L 187.379375 222.670625 
Q 187.379375 224.670625 189.379375 224.670625 
z
" style="fill: #ffffff; opacity: 0.8; stroke: #cccccc; stroke-linejoin: miter"/>
    </g>
    <g id="line2d_9">
     <path d="M 191.379375 156.378438 
L 201.379375 156.378438 
L 211.379375 156.378438 
" style="fill: none; stroke-dasharray: 11.1,4.8; stroke-dashoffset: 0; stroke: #000000; stroke-width: 3"/>
    </g>
    <g id="text_9">
     <!-- Achieved QAOA Accuracy -->
     <g transform="translate(219.379375 159.878438)scale(0.1 -0.1)">
      <defs>
       <path id="DejaVuSans-68" d="M 3513 2113 
L 3513 0 
L 2938 0 
L 2938 2094 
Q 2938 2591 2744 2837 
Q 2550 3084 2163 3084 
Q 1697 3084 1428 2787 
Q 1159 2491 1159 1978 
L 1159 0 
L 581 0 
L 581 4863 
L 1159 4863 
L 1159 2956 
Q 1366 3272 1645 3428 
Q 1925 3584 2291 3584 
Q 2894 3584 3203 3211 
Q 3513 2838 3513 2113 
z
" transform="scale(0.015625)"/>
       <path id="DejaVuSans-76" d="M 191 3500 
L 800 3500 
L 1894 563 
L 2988 3500 
L 3597 3500 
L 2284 0 
L 1503 0 
L 191 3500 
z
" transform="scale(0.015625)"/>
      </defs>
      <use xlink:href="#DejaVuSans-41"/>
      <use xlink:href="#DejaVuSans-63" x="66.658203"/>
      <use xlink:href="#DejaVuSans-68" x="121.638672"/>
      <use xlink:href="#DejaVuSans-69" x="185.017578"/>
      <use xlink:href="#DejaVuSans-65" x="212.800781"/>
      <use xlink:href="#DejaVuSans-76" x="274.324219"/>
      <use xlink:href="#DejaVuSans-65" x="333.503906"/>
      <use xlink:href="#DejaVuSans-64" x="395.027344"/>
      <use xlink:href="#DejaVuSans-20" x="458.503906"/>
      <use xlink:href="#DejaVuSans-51" x="490.291016"/>
      <use xlink:href="#DejaVuSans-41" x="569.001953"/>
      <use xlink:href="#DejaVuSans-4f" x="635.660156"/>
      <use xlink:href="#DejaVuSans-41" x="712.621094"/>
      <use xlink:href="#DejaVuSans-20" x="781.029297"/>
      <use xlink:href="#DejaVuSans-41" x="812.816406"/>
      <use xlink:href="#DejaVuSans-63" x="879.474609"/>
      <use xlink:href="#DejaVuSans-63" x="934.455078"/>
      <use xlink:href="#DejaVuSans-75" x="989.435547"/>
      <use xlink:href="#DejaVuSans-72" x="1052.814453"/>
      <use xlink:href="#DejaVuSans-61" x="1093.927734"/>
      <use xlink:href="#DejaVuSans-63" x="1155.207031"/>
      <use xlink:href="#DejaVuSans-79" x="1210.1875"/>
     </g>
    </g>
    <g id="patch_60">
     <path d="M 191.379375 174.556563 
L 211.379375 174.556563 
L 211.379375 167.556563 
L 191.379375 167.556563 
z
" style="fill: #1f77b4"/>
    </g>
    <g id="text_10">
     <!-- Distance: 0 -->
     <g transform="translate(219.379375 174.556563)scale(0.1 -0.1)">
      <defs>
       <path id="DejaVuSans-44" d="M 1259 4147 
L 1259 519 
L 2022 519 
Q 2988 519 3436 956 
Q 3884 1394 3884 2338 
Q 3884 3275 3436 3711 
Q 2988 4147 2022 4147 
L 1259 4147 
z
M 628 4666 
L 1925 4666 
Q 3281 4666 3915 4102 
Q 4550 3538 4550 2338 
Q 4550 1131 3912 565 
Q 3275 0 1925 0 
L 628 0 
L 628 4666 
z
" transform="scale(0.015625)"/>
       <path id="DejaVuSans-73" d="M 2834 3397 
L 2834 2853 
Q 2591 2978 2328 3040 
Q 2066 3103 1784 3103 
Q 1356 3103 1142 2972 
Q 928 2841 928 2578 
Q 928 2378 1081 2264 
Q 1234 2150 1697 2047 
L 1894 2003 
Q 2506 1872 2764 1633 
Q 3022 1394 3022 966 
Q 3022 478 2636 193 
Q 2250 -91 1575 -91 
Q 1294 -91 989 -36 
Q 684 19 347 128 
L 347 722 
Q 666 556 975 473 
Q 1284 391 1588 391 
Q 1994 391 2212 530 
Q 2431 669 2431 922 
Q 2431 1156 2273 1281 
Q 2116 1406 1581 1522 
L 1381 1569 
Q 847 1681 609 1914 
Q 372 2147 372 2553 
Q 372 3047 722 3315 
Q 1072 3584 1716 3584 
Q 2034 3584 2315 3537 
Q 2597 3491 2834 3397 
z
" transform="scale(0.015625)"/>
       <path id="DejaVuSans-3a" d="M 750 794 
L 1409 794 
L 1409 0 
L 750 0 
L 750 794 
z
M 750 3309 
L 1409 3309 
L 1409 2516 
L 750 2516 
L 750 3309 
z
" transform="scale(0.015625)"/>
      </defs>
      <use xlink:href="#DejaVuSans-44"/>
      <use xlink:href="#DejaVuSans-69" x="77.001953"/>
      <use xlink:href="#DejaVuSans-73" x="104.785156"/>
      <use xlink:href="#DejaVuSans-74" x="156.884766"/>
      <use xlink:href="#DejaVuSans-61" x="196.09375"/>
      <use xlink:href="#DejaVuSans-6e" x="257.373047"/>
      <use xlink:href="#DejaVuSans-63" x="320.751953"/>
      <use xlink:href="#DejaVuSans-65" x="375.732422"/>
      <use xlink:href="#DejaVuSans-3a" x="437.255859"/>
      <use xlink:href="#DejaVuSans-20" x="470.947266"/>
      <use xlink:href="#DejaVuSans-30" x="502.734375"/>
     </g>
    </g>
    <g id="patch_61">
     <path d="M 191.379375 189.234688 
L 211.379375 189.234688 
L 211.379375 182.234688 
L 191.379375 182.234688 
z
" style="fill: #ff7f0e"/>
    </g>
    <g id="text_11">
     <!-- Distance: 1 -->
     <g transform="translate(219.379375 189.234688)scale(0.1 -0.1)">
      <use xlink:href="#DejaVuSans-44"/>
      <use xlink:href="#DejaVuSans-69" x="77.001953"/>
      <use xlink:href="#DejaVuSans-73" x="104.785156"/>
      <use xlink:href="#DejaVuSans-74" x="156.884766"/>
      <use xlink:href="#DejaVuSans-61" x="196.09375"/>
      <use xlink:href="#DejaVuSans-6e" x="257.373047"/>
      <use xlink:href="#DejaVuSans-63" x="320.751953"/>
      <use xlink:href="#DejaVuSans-65" x="375.732422"/>
      <use xlink:href="#DejaVuSans-3a" x="437.255859"/>
      <use xlink:href="#DejaVuSans-20" x="470.947266"/>
      <use xlink:href="#DejaVuSans-31" x="502.734375"/>
     </g>
    </g>
    <g id="patch_62">
     <path d="M 191.379375 203.912813 
L 211.379375 203.912813 
L 211.379375 196.912813 
L 191.379375 196.912813 
z
" style="fill: #2ca02c"/>
    </g>
    <g id="text_12">
     <!-- Distance: 2 -->
     <g transform="translate(219.379375 203.912813)scale(0.1 -0.1)">
      <use xlink:href="#DejaVuSans-44"/>
      <use xlink:href="#DejaVuSans-69" x="77.001953"/>
      <use xlink:href="#DejaVuSans-73" x="104.785156"/>
      <use xlink:href="#DejaVuSans-74" x="156.884766"/>
      <use xlink:href="#DejaVuSans-61" x="196.09375"/>
      <use xlink:href="#DejaVuSans-6e" x="257.373047"/>
      <use xlink:href="#DejaVuSans-63" x="320.751953"/>
      <use xlink:href="#DejaVuSans-65" x="375.732422"/>
      <use xlink:href="#DejaVuSans-3a" x="437.255859"/>
      <use xlink:href="#DejaVuSans-20" x="470.947266"/>
      <use xlink:href="#DejaVuSans-32" x="502.734375"/>
     </g>
    </g>
    <g id="patch_63">
     <path d="M 191.379375 218.590938 
L 211.379375 218.590938 
L 211.379375 211.590938 
L 191.379375 211.590938 
z
" style="fill: #d62728"/>
    </g>
    <g id="text_13">
     <!-- Distance: 3 -->
     <g transform="translate(219.379375 218.590938)scale(0.1 -0.1)">
      <defs>
       <path id="DejaVuSans-33" d="M 2597 2516 
Q 3050 2419 3304 2112 
Q 3559 1806 3559 1356 
Q 3559 666 3084 287 
Q 2609 -91 1734 -91 
Q 1441 -91 1130 -33 
Q 819 25 488 141 
L 488 750 
Q 750 597 1062 519 
Q 1375 441 1716 441 
Q 2309 441 2620 675 
Q 2931 909 2931 1356 
Q 2931 1769 2642 2001 
Q 2353 2234 1838 2234 
L 1294 2234 
L 1294 2753 
L 1863 2753 
Q 2328 2753 2575 2939 
Q 2822 3125 2822 3475 
Q 2822 3834 2567 4026 
Q 2313 4219 1838 4219 
Q 1578 4219 1281 4162 
Q 984 4106 628 3988 
L 628 4550 
Q 988 4650 1302 4700 
Q 1616 4750 1894 4750 
Q 2613 4750 3031 4423 
Q 3450 4097 3450 3541 
Q 3450 3153 3228 2886 
Q 3006 2619 2597 2516 
z
" transform="scale(0.015625)"/>
      </defs>
      <use xlink:href="#DejaVuSans-44"/>
      <use xlink:href="#DejaVuSans-69" x="77.001953"/>
      <use xlink:href="#DejaVuSans-73" x="104.785156"/>
      <use xlink:href="#DejaVuSans-74" x="156.884766"/>
      <use xlink:href="#DejaVuSans-61" x="196.09375"/>
      <use xlink:href="#DejaVuSans-6e" x="257.373047"/>
      <use xlink:href="#DejaVuSans-63" x="320.751953"/>
      <use xlink:href="#DejaVuSans-65" x="375.732422"/>
      <use xlink:href="#DejaVuSans-3a" x="437.255859"/>
      <use xlink:href="#DejaVuSans-20" x="470.947266"/>
      <use xlink:href="#DejaVuSans-33" x="502.734375"/>
     </g>
    </g>
   </g>
  </g>
 </g>
 <defs>
  <clipPath id="pc975673cfa">
   <rect x="54" y="34.56" width="334.8" height="217.44"/>
  </clipPath>
 </defs>
</svg>
