<?xml version="1.0" encoding="utf-8" standalone="no"?>
<!DOCTYPE svg PUBLIC "-//W3C//DTD SVG 1.1//EN"
  "http://www.w3.org/Graphics/SVG/1.1/DTD/svg11.dtd">
<svg xmlns:xlink="http://www.w3.org/1999/xlink" width="460.8pt" height="345.6pt" viewBox="0 0 460.8 345.6" xmlns="http://www.w3.org/2000/svg" version="1.1">
 <metadata>
  <rdf:RDF xmlns:dc="http://purl.org/dc/elements/1.1/" xmlns:cc="http://creativecommons.org/ns#" xmlns:rdf="http://www.w3.org/1999/02/22-rdf-syntax-ns#">
   <cc:Work>
    <dc:type rdf:resource="http://purl.org/dc/dcmitype/StillImage"/>
    <dc:date>2022-02-28T23:46:42.242989</dc:date>
    <dc:format>image/svg+xml</dc:format>
    <dc:creator>
     <cc:Agent>
      <dc:title>Matplotlib v3.5.1, https://matplotlib.org/</dc:title>
     </cc:Agent>
    </dc:creator>
   </cc:Work>
  </rdf:RDF>
 </metadata>
 <defs>
  <style type="text/css">*{stroke-linejoin: round; stroke-linecap: butt}</style>
 </defs>
 <g id="figure_1">
  <g id="patch_1">
   <path d="M 0 345.6 
L 460.8 345.6 
L 460.8 0 
L 0 0 
L 0 345.6 
z
" style="fill: none"/>
  </g>
  <g id="axes_1">
   <g id="patch_2">
    <path d="M 57.6 307.584 
L 414.72 307.584 
L 414.72 41.472 
L 57.6 41.472 
L 57.6 307.584 
z
" style="fill: none"/>
   </g>
   <g id="matplotlib.axis_1">
    <g id="xtick_1">
     <g id="line2d_1">
      <path d="M 57.6 307.584 
L 57.6 41.472 
" clip-path="url(#p818928ebc7)" style="fill: none; stroke: #b0b0b0; stroke-width: 0.8; stroke-linecap: square"/>
     </g>
     <g id="line2d_2">
      <defs>
       <path id="me2b68fcea9" d="M 0 0 
L 0 3.5 
" style="stroke: #000000; stroke-width: 0.8"/>
      </defs>
      <g>
       <use xlink:href="#me2b68fcea9" x="57.6" y="307.584" style="stroke: #000000; stroke-width: 0.8"/>
      </g>
     </g>
     <g id="text_1">
      <!-- F0 -->
      <g transform="translate(51.542969 322.182437)scale(0.1 -0.1)">
       <defs>
        <path id="DejaVuSans-46" d="M 628 4666 
L 3309 4666 
L 3309 4134 
L 1259 4134 
L 1259 2759 
L 3109 2759 
L 3109 2228 
L 1259 2228 
L 1259 0 
L 628 0 
L 628 4666 
z
" transform="scale(0.015625)"/>
        <path id="DejaVuSans-30" d="M 2034 4250 
Q 1547 4250 1301 3770 
Q 1056 3291 1056 2328 
Q 1056 1369 1301 889 
Q 1547 409 2034 409 
Q 2525 409 2770 889 
Q 3016 1369 3016 2328 
Q 3016 3291 2770 3770 
Q 2525 4250 2034 4250 
z
M 2034 4750 
Q 2819 4750 3233 4129 
Q 3647 3509 3647 2328 
Q 3647 1150 3233 529 
Q 2819 -91 2034 -91 
Q 1250 -91 836 529 
Q 422 1150 422 2328 
Q 422 3509 836 4129 
Q 1250 4750 2034 4750 
z
" transform="scale(0.015625)"/>
       </defs>
       <use xlink:href="#DejaVuSans-46"/>
       <use xlink:href="#DejaVuSans-30" x="57.519531"/>
      </g>
     </g>
    </g>
    <g id="xtick_2">
     <g id="line2d_3">
      <path d="M 176.64 307.584 
L 176.64 41.472 
" clip-path="url(#p818928ebc7)" style="fill: none; stroke: #b0b0b0; stroke-width: 0.8; stroke-linecap: square"/>
     </g>
     <g id="line2d_4">
      <g>
       <use xlink:href="#me2b68fcea9" x="176.64" y="307.584" style="stroke: #000000; stroke-width: 0.8"/>
      </g>
     </g>
     <g id="text_2">
      <!-- F1 -->
      <g transform="translate(170.582969 322.182437)scale(0.1 -0.1)">
       <defs>
        <path id="DejaVuSans-31" d="M 794 531 
L 1825 531 
L 1825 4091 
L 703 3866 
L 703 4441 
L 1819 4666 
L 2450 4666 
L 2450 531 
L 3481 531 
L 3481 0 
L 794 0 
L 794 531 
z
" transform="scale(0.015625)"/>
       </defs>
       <use xlink:href="#DejaVuSans-46"/>
       <use xlink:href="#DejaVuSans-31" x="57.519531"/>
      </g>
     </g>
    </g>
    <g id="xtick_3">
     <g id="line2d_5">
      <path d="M 295.68 307.584 
L 295.68 41.472 
" clip-path="url(#p818928ebc7)" style="fill: none; stroke: #b0b0b0; stroke-width: 0.8; stroke-linecap: square"/>
     </g>
     <g id="line2d_6">
      <g>
       <use xlink:href="#me2b68fcea9" x="295.68" y="307.584" style="stroke: #000000; stroke-width: 0.8"/>
      </g>
     </g>
     <g id="text_3">
      <!-- F2 -->
      <g transform="translate(289.622969 322.182437)scale(0.1 -0.1)">
       <defs>
        <path id="DejaVuSans-32" d="M 1228 531 
L 3431 531 
L 3431 0 
L 469 0 
L 469 531 
Q 828 903 1448 1529 
Q 2069 2156 2228 2338 
Q 2531 2678 2651 2914 
Q 2772 3150 2772 3378 
Q 2772 3750 2511 3984 
Q 2250 4219 1831 4219 
Q 1534 4219 1204 4116 
Q 875 4013 500 3803 
L 500 4441 
Q 881 4594 1212 4672 
Q 1544 4750 1819 4750 
Q 2544 4750 2975 4387 
Q 3406 4025 3406 3419 
Q 3406 3131 3298 2873 
Q 3191 2616 2906 2266 
Q 2828 2175 2409 1742 
Q 1991 1309 1228 531 
z
" transform="scale(0.015625)"/>
       </defs>
       <use xlink:href="#DejaVuSans-46"/>
       <use xlink:href="#DejaVuSans-32" x="57.519531"/>
      </g>
     </g>
    </g>
    <g id="xtick_4">
     <g id="line2d_7">
      <path d="M 414.72 307.584 
L 414.72 41.472 
" clip-path="url(#p818928ebc7)" style="fill: none; stroke: #b0b0b0; stroke-width: 0.8; stroke-linecap: square"/>
     </g>
     <g id="line2d_8">
      <g>
       <use xlink:href="#me2b68fcea9" x="414.72" y="307.584" style="stroke: #000000; stroke-width: 0.8"/>
      </g>
     </g>
     <g id="text_4">
      <!-- F3 -->
      <g transform="translate(408.662969 322.182437)scale(0.1 -0.1)">
       <defs>
        <path id="DejaVuSans-33" d="M 2597 2516 
Q 3050 2419 3304 2112 
Q 3559 1806 3559 1356 
Q 3559 666 3084 287 
Q 2609 -91 1734 -91 
Q 1441 -91 1130 -33 
Q 819 25 488 141 
L 488 750 
Q 750 597 1062 519 
Q 1375 441 1716 441 
Q 2309 441 2620 675 
Q 2931 909 2931 1356 
Q 2931 1769 2642 2001 
Q 2353 2234 1838 2234 
L 1294 2234 
L 1294 2753 
L 1863 2753 
Q 2328 2753 2575 2939 
Q 2822 3125 2822 3475 
Q 2822 3834 2567 4026 
Q 2313 4219 1838 4219 
Q 1578 4219 1281 4162 
Q 984 4106 628 3988 
L 628 4550 
Q 988 4650 1302 4700 
Q 1616 4750 1894 4750 
Q 2613 4750 3031 4423 
Q 3450 4097 3450 3541 
Q 3450 3153 3228 2886 
Q 3006 2619 2597 2516 
z
" transform="scale(0.015625)"/>
       </defs>
       <use xlink:href="#DejaVuSans-46"/>
       <use xlink:href="#DejaVuSans-33" x="57.519531"/>
      </g>
     </g>
    </g>
   </g>
   <g id="matplotlib.axis_2">
    <g id="ytick_1">
     <g id="line2d_9">
      <path d="M 57.6 298.59746 
L 414.72 298.59746 
" clip-path="url(#p818928ebc7)" style="fill: none; stroke: #b0b0b0; stroke-width: 0.8; stroke-linecap: square"/>
     </g>
     <g id="line2d_10">
      <defs>
       <path id="m2f4fa2a9ca" d="M 0 0 
L -3.5 0 
" style="stroke: #000000; stroke-width: 0.8"/>
      </defs>
      <g>
       <use xlink:href="#m2f4fa2a9ca" x="57.6" y="298.59746" style="stroke: #000000; stroke-width: 0.8"/>
      </g>
     </g>
     <g id="text_5">
      <!-- −3 -->
      <g transform="translate(35.857813 302.396679)scale(0.1 -0.1)">
       <defs>
        <path id="DejaVuSans-2212" d="M 678 2272 
L 4684 2272 
L 4684 1741 
L 678 1741 
L 678 2272 
z
" transform="scale(0.015625)"/>
       </defs>
       <use xlink:href="#DejaVuSans-2212"/>
       <use xlink:href="#DejaVuSans-33" x="83.789062"/>
      </g>
     </g>
    </g>
    <g id="ytick_2">
     <g id="line2d_11">
      <path d="M 57.6 259.624464 
L 414.72 259.624464 
" clip-path="url(#p818928ebc7)" style="fill: none; stroke: #b0b0b0; stroke-width: 0.8; stroke-linecap: square"/>
     </g>
     <g id="line2d_12">
      <g>
       <use xlink:href="#m2f4fa2a9ca" x="57.6" y="259.624464" style="stroke: #000000; stroke-width: 0.8"/>
      </g>
     </g>
     <g id="text_6">
      <!-- −2 -->
      <g transform="translate(35.857813 263.423683)scale(0.1 -0.1)">
       <use xlink:href="#DejaVuSans-2212"/>
       <use xlink:href="#DejaVuSans-32" x="83.789062"/>
      </g>
     </g>
    </g>
    <g id="ytick_3">
     <g id="line2d_13">
      <path d="M 57.6 220.651468 
L 414.72 220.651468 
" clip-path="url(#p818928ebc7)" style="fill: none; stroke: #b0b0b0; stroke-width: 0.8; stroke-linecap: square"/>
     </g>
     <g id="line2d_14">
      <g>
       <use xlink:href="#m2f4fa2a9ca" x="57.6" y="220.651468" style="stroke: #000000; stroke-width: 0.8"/>
      </g>
     </g>
     <g id="text_7">
      <!-- −1 -->
      <g transform="translate(35.857813 224.450686)scale(0.1 -0.1)">
       <use xlink:href="#DejaVuSans-2212"/>
       <use xlink:href="#DejaVuSans-31" x="83.789062"/>
      </g>
     </g>
    </g>
    <g id="ytick_4">
     <g id="line2d_15">
      <path d="M 57.6 181.678472 
L 414.72 181.678472 
" clip-path="url(#p818928ebc7)" style="fill: none; stroke: #b0b0b0; stroke-width: 0.8; stroke-linecap: square"/>
     </g>
     <g id="line2d_16">
      <g>
       <use xlink:href="#m2f4fa2a9ca" x="57.6" y="181.678472" style="stroke: #000000; stroke-width: 0.8"/>
      </g>
     </g>
     <g id="text_8">
      <!-- 0 -->
      <g transform="translate(44.2375 185.47769)scale(0.1 -0.1)">
       <use xlink:href="#DejaVuSans-30"/>
      </g>
     </g>
    </g>
    <g id="ytick_5">
     <g id="line2d_17">
      <path d="M 57.6 142.705475 
L 414.72 142.705475 
" clip-path="url(#p818928ebc7)" style="fill: none; stroke: #b0b0b0; stroke-width: 0.8; stroke-linecap: square"/>
     </g>
     <g id="line2d_18">
      <g>
       <use xlink:href="#m2f4fa2a9ca" x="57.6" y="142.705475" style="stroke: #000000; stroke-width: 0.8"/>
      </g>
     </g>
     <g id="text_9">
      <!-- 1 -->
      <g transform="translate(44.2375 146.504694)scale(0.1 -0.1)">
       <use xlink:href="#DejaVuSans-31"/>
      </g>
     </g>
    </g>
    <g id="ytick_6">
     <g id="line2d_19">
      <path d="M 57.6 103.732479 
L 414.72 103.732479 
" clip-path="url(#p818928ebc7)" style="fill: none; stroke: #b0b0b0; stroke-width: 0.8; stroke-linecap: square"/>
     </g>
     <g id="line2d_20">
      <g>
       <use xlink:href="#m2f4fa2a9ca" x="57.6" y="103.732479" style="stroke: #000000; stroke-width: 0.8"/>
      </g>
     </g>
     <g id="text_10">
      <!-- 2 -->
      <g transform="translate(44.2375 107.531698)scale(0.1 -0.1)">
       <use xlink:href="#DejaVuSans-32"/>
      </g>
     </g>
    </g>
    <g id="ytick_7">
     <g id="line2d_21">
      <path d="M 57.6 64.759483 
L 414.72 64.759483 
" clip-path="url(#p818928ebc7)" style="fill: none; stroke: #b0b0b0; stroke-width: 0.8; stroke-linecap: square"/>
     </g>
     <g id="line2d_22">
      <g>
       <use xlink:href="#m2f4fa2a9ca" x="57.6" y="64.759483" style="stroke: #000000; stroke-width: 0.8"/>
      </g>
     </g>
     <g id="text_11">
      <!-- 3 -->
      <g transform="translate(44.2375 68.558702)scale(0.1 -0.1)">
       <use xlink:href="#DejaVuSans-33"/>
      </g>
     </g>
    </g>
   </g>
   <g id="line2d_23">
    <path d="M 57.6 135.566121 
L 176.64 183.183661 
L 295.68 150.691699 
L 414.72 148.880459 
" clip-path="url(#p818928ebc7)" style="fill: none; stroke: #66c2a5; stroke-width: 1.5; stroke-linecap: square"/>
   </g>
   <g id="line2d_24">
    <path d="M 57.6 181.553763 
L 176.64 129.992523 
L 295.68 149.315853 
L 414.72 125.642973 
" clip-path="url(#p818928ebc7)" style="fill: none; stroke: #66c2a5; stroke-width: 1.5; stroke-linecap: square"/>
   </g>
   <g id="line2d_25">
    <path d="M 57.6 201.683569 
L 176.64 151.985468 
L 295.68 148.008464 
L 414.72 224.977227 
" clip-path="url(#p818928ebc7)" style="fill: none; stroke: #a6d854; stroke-width: 1.5; stroke-linecap: square"/>
   </g>
   <g id="line2d_26">
    <path d="M 57.6 227.28163 
L 176.64 107.083117 
L 295.68 192.12476 
L 414.72 205.690029 
" clip-path="url(#p818928ebc7)" style="fill: none; stroke: #a6d854; stroke-width: 1.5; stroke-linecap: square"/>
   </g>
   <g id="line2d_27">
    <path d="M 57.6 190.141729 
L 176.64 206.410442 
L 295.68 234.010178 
L 414.72 227.947571 
" clip-path="url(#p818928ebc7)" style="fill: none; stroke: #b3b3b3; stroke-width: 1.5; stroke-linecap: square"/>
   </g>
   <g id="line2d_28">
    <path d="M 57.6 225.191273 
L 176.64 197.263723 
L 295.68 157.875191 
L 414.72 136.611587 
" clip-path="url(#p818928ebc7)" style="fill: none; stroke: #66c2a5; stroke-width: 1.5; stroke-linecap: square"/>
   </g>
   <g id="line2d_29">
    <path d="M 57.6 178.810938 
L 176.64 181.452871 
L 295.68 216.104817 
L 414.72 221.205005 
" clip-path="url(#p818928ebc7)" style="fill: none; stroke: #b3b3b3; stroke-width: 1.5; stroke-linecap: square"/>
   </g>
   <g id="line2d_30">
    <path d="M 57.6 214.583272 
L 176.64 195.242859 
L 295.68 162.160232 
L 414.72 101.527352 
" clip-path="url(#p818928ebc7)" style="fill: none; stroke: #66c2a5; stroke-width: 1.5; stroke-linecap: square"/>
   </g>
   <g id="line2d_31">
    <path d="M 57.6 173.045808 
L 176.64 174.312675 
L 295.68 180.57241 
L 414.72 195.602022 
" clip-path="url(#p818928ebc7)" style="fill: none; stroke: #a6d854; stroke-width: 1.5; stroke-linecap: square"/>
   </g>
   <g id="line2d_32">
    <path d="M 57.6 149.17114 
L 176.64 278.049482 
L 295.68 219.346755 
L 414.72 202.387724 
" clip-path="url(#p818928ebc7)" style="fill: none; stroke: #b3b3b3; stroke-width: 1.5; stroke-linecap: square"/>
   </g>
   <g id="line2d_33">
    <path d="M 57.6 260.814391 
L 176.64 157.279752 
L 295.68 130.399635 
L 414.72 158.309777 
" clip-path="url(#p818928ebc7)" style="fill: none; stroke: #66c2a5; stroke-width: 1.5; stroke-linecap: square"/>
   </g>
   <g id="line2d_34">
    <path d="M 57.6 167.343092 
L 176.64 164.55891 
L 295.68 153.814468 
L 414.72 266.470538 
" clip-path="url(#p818928ebc7)" style="fill: none; stroke: #a6d854; stroke-width: 1.5; stroke-linecap: square"/>
   </g>
   <g id="line2d_35">
    <path d="M 57.6 190.795741 
L 176.64 247.35922 
L 295.68 215.176881 
L 414.72 220.517995 
" clip-path="url(#p818928ebc7)" style="fill: none; stroke: #b3b3b3; stroke-width: 1.5; stroke-linecap: square"/>
   </g>
   <g id="line2d_36">
    <path d="M 57.6 218.178749 
L 176.64 218.306454 
L 295.68 117.05689 
L 414.72 182.580214 
" clip-path="url(#p818928ebc7)" style="fill: none; stroke: #66c2a5; stroke-width: 1.5; stroke-linecap: square"/>
   </g>
   <g id="line2d_37">
    <path d="M 57.6 243.878894 
L 176.64 194.314616 
L 295.68 125.318926 
L 414.72 246.857151 
" clip-path="url(#p818928ebc7)" style="fill: none; stroke: #a6d854; stroke-width: 1.5; stroke-linecap: square"/>
   </g>
   <g id="line2d_38">
    <path d="M 57.6 167.833197 
L 176.64 192.58343 
L 295.68 199.355732 
L 414.72 99.258924 
" clip-path="url(#p818928ebc7)" style="fill: none; stroke: #66c2a5; stroke-width: 1.5; stroke-linecap: square"/>
   </g>
   <g id="line2d_39">
    <path d="M 57.6 110.963074 
L 176.64 238.459911 
L 295.68 174.084159 
L 414.72 216.848278 
" clip-path="url(#p818928ebc7)" style="fill: none; stroke: #a6d854; stroke-width: 1.5; stroke-linecap: square"/>
   </g>
   <g id="line2d_40">
    <path d="M 57.6 160.453469 
L 176.64 181.467689 
L 295.68 168.027986 
L 414.72 107.395339 
" clip-path="url(#p818928ebc7)" style="fill: none; stroke: #66c2a5; stroke-width: 1.5; stroke-linecap: square"/>
   </g>
   <g id="line2d_41">
    <path d="M 57.6 140.07287 
L 176.64 261.856713 
L 295.68 155.258789 
L 414.72 141.778998 
" clip-path="url(#p818928ebc7)" style="fill: none; stroke: #66c2a5; stroke-width: 1.5; stroke-linecap: square"/>
   </g>
   <g id="line2d_42">
    <path d="M 57.6 188.638818 
L 176.64 111.620201 
L 295.68 126.142071 
L 414.72 218.421909 
" clip-path="url(#p818928ebc7)" style="fill: none; stroke: #a6d854; stroke-width: 1.5; stroke-linecap: square"/>
   </g>
   <g id="line2d_43">
    <path d="M 57.6 199.468403 
L 176.64 189.433461 
L 295.68 118.520914 
L 414.72 153.253186 
" clip-path="url(#p818928ebc7)" style="fill: none; stroke: #66c2a5; stroke-width: 1.5; stroke-linecap: square"/>
   </g>
   <g id="line2d_44">
    <path d="M 57.6 148.693869 
L 176.64 295.488 
L 295.68 247.749912 
L 414.72 242.178421 
" clip-path="url(#p818928ebc7)" style="fill: none; stroke: #b3b3b3; stroke-width: 1.5; stroke-linecap: square"/>
   </g>
   <g id="line2d_45">
    <path d="M 57.6 151.857115 
L 176.64 183.029298 
L 295.68 144.903671 
L 414.72 219.796177 
" clip-path="url(#p818928ebc7)" style="fill: none; stroke: #a6d854; stroke-width: 1.5; stroke-linecap: square"/>
   </g>
   <g id="line2d_46">
    <path d="M 57.6 171.091043 
L 176.64 159.421152 
L 295.68 157.831526 
L 414.72 203.929225 
" clip-path="url(#p818928ebc7)" style="fill: none; stroke: #a6d854; stroke-width: 1.5; stroke-linecap: square"/>
   </g>
   <g id="line2d_47">
    <path d="M 57.6 216.553061 
L 176.64 129.944652 
L 295.68 127.52753 
L 414.72 214.817281 
" clip-path="url(#p818928ebc7)" style="fill: none; stroke: #a6d854; stroke-width: 1.5; stroke-linecap: square"/>
   </g>
   <g id="line2d_48">
    <path d="M 57.6 156.542692 
L 176.64 193.701835 
L 295.68 216.98252 
L 414.72 219.758592 
" clip-path="url(#p818928ebc7)" style="fill: none; stroke: #b3b3b3; stroke-width: 1.5; stroke-linecap: square"/>
   </g>
   <g id="line2d_49">
    <path d="M 57.6 240.553574 
L 176.64 216.316195 
L 295.68 141.792072 
L 414.72 136.017434 
" clip-path="url(#p818928ebc7)" style="fill: none; stroke: #66c2a5; stroke-width: 1.5; stroke-linecap: square"/>
   </g>
   <g id="line2d_50">
    <path d="M 57.6 178.694954 
L 176.64 133.805385 
L 295.68 239.135906 
L 414.72 231.184869 
" clip-path="url(#p818928ebc7)" style="fill: none; stroke: #b3b3b3; stroke-width: 1.5; stroke-linecap: square"/>
   </g>
   <g id="line2d_51">
    <path d="M 57.6 240.099305 
L 176.64 148.23157 
L 295.68 232.608735 
L 414.72 227.353341 
" clip-path="url(#p818928ebc7)" style="fill: none; stroke: #b3b3b3; stroke-width: 1.5; stroke-linecap: square"/>
   </g>
   <g id="line2d_52">
    <path d="M 57.6 131.327723 
L 176.64 186.342277 
L 295.68 176.189576 
L 414.72 193.550553 
" clip-path="url(#p818928ebc7)" style="fill: none; stroke: #b3b3b3; stroke-width: 1.5; stroke-linecap: square"/>
   </g>
   <g id="line2d_53">
    <path d="M 57.6 136.534357 
L 176.64 232.872859 
L 295.68 173.119169 
L 414.72 181.885837 
" clip-path="url(#p818928ebc7)" style="fill: none; stroke: #b3b3b3; stroke-width: 1.5; stroke-linecap: square"/>
   </g>
   <g id="line2d_54">
    <path d="M 57.6 238.187337 
L 176.64 213.577036 
L 295.68 255.854159 
L 414.72 234.843571 
" clip-path="url(#p818928ebc7)" style="fill: none; stroke: #b3b3b3; stroke-width: 1.5; stroke-linecap: square"/>
   </g>
   <g id="line2d_55">
    <path d="M 57.6 245.01422 
L 176.64 178.098729 
L 295.68 165.016568 
L 414.72 182.94735 
" clip-path="url(#p818928ebc7)" style="fill: none; stroke: #a6d854; stroke-width: 1.5; stroke-linecap: square"/>
   </g>
   <g id="line2d_56">
    <path d="M 57.6 136.929564 
L 176.64 159.796007 
L 295.68 128.753924 
L 414.72 227.668877 
" clip-path="url(#p818928ebc7)" style="fill: none; stroke: #a6d854; stroke-width: 1.5; stroke-linecap: square"/>
   </g>
   <g id="line2d_57">
    <path d="M 57.6 138.34052 
L 176.64 218.314559 
L 295.68 114.935514 
L 414.72 239.014103 
" clip-path="url(#p818928ebc7)" style="fill: none; stroke: #a6d854; stroke-width: 1.5; stroke-linecap: square"/>
   </g>
   <g id="line2d_58">
    <path d="M 57.6 198.475718 
L 176.64 120.106404 
L 295.68 144.389843 
L 414.72 149.031954 
" clip-path="url(#p818928ebc7)" style="fill: none; stroke: #66c2a5; stroke-width: 1.5; stroke-linecap: square"/>
   </g>
   <g id="line2d_59">
    <path d="M 57.6 212.700117 
L 176.64 124.576635 
L 295.68 138.659191 
L 414.72 209.310526 
" clip-path="url(#p818928ebc7)" style="fill: none; stroke: #a6d854; stroke-width: 1.5; stroke-linecap: square"/>
   </g>
   <g id="line2d_60">
    <path d="M 57.6 87.385916 
L 176.64 151.777733 
L 295.68 190.227287 
L 414.72 212.172485 
" clip-path="url(#p818928ebc7)" style="fill: none; stroke: #a6d854; stroke-width: 1.5; stroke-linecap: square"/>
   </g>
   <g id="line2d_61">
    <path d="M 57.6 184.625262 
L 176.64 218.813807 
L 295.68 132.202391 
L 414.72 155.133939 
" clip-path="url(#p818928ebc7)" style="fill: none; stroke: #66c2a5; stroke-width: 1.5; stroke-linecap: square"/>
   </g>
   <g id="line2d_62">
    <path d="M 57.6 195.721423 
L 176.64 226.866781 
L 295.68 173.119685 
L 414.72 205.333447 
" clip-path="url(#p818928ebc7)" style="fill: none; stroke: #a6d854; stroke-width: 1.5; stroke-linecap: square"/>
   </g>
   <g id="line2d_63">
    <path d="M 57.6 173.840214 
L 176.64 196.411997 
L 295.68 118.887846 
L 414.72 196.57965 
" clip-path="url(#p818928ebc7)" style="fill: none; stroke: #a6d854; stroke-width: 1.5; stroke-linecap: square"/>
   </g>
   <g id="line2d_64">
    <path d="M 57.6 201.354955 
L 176.64 108.855791 
L 295.68 251.832161 
L 414.72 235.422175 
" clip-path="url(#p818928ebc7)" style="fill: none; stroke: #b3b3b3; stroke-width: 1.5; stroke-linecap: square"/>
   </g>
   <g id="line2d_65">
    <path d="M 57.6 153.707135 
L 176.64 140.795881 
L 295.68 220.871611 
L 414.72 221.191847 
" clip-path="url(#p818928ebc7)" style="fill: none; stroke: #b3b3b3; stroke-width: 1.5; stroke-linecap: square"/>
   </g>
   <g id="line2d_66">
    <path d="M 57.6 197.72658 
L 176.64 182.070524 
L 295.68 170.507591 
L 414.72 187.441939 
" clip-path="url(#p818928ebc7)" style="fill: none; stroke: #a6d854; stroke-width: 1.5; stroke-linecap: square"/>
   </g>
   <g id="line2d_67">
    <path d="M 57.6 202.15723 
L 176.64 214.774978 
L 295.68 221.06175 
L 414.72 229.470315 
" clip-path="url(#p818928ebc7)" style="fill: none; stroke: #b3b3b3; stroke-width: 1.5; stroke-linecap: square"/>
   </g>
   <g id="line2d_68">
    <path d="M 57.6 191.605906 
L 176.64 139.448289 
L 295.68 148.125806 
L 414.72 129.248702 
" clip-path="url(#p818928ebc7)" style="fill: none; stroke: #66c2a5; stroke-width: 1.5; stroke-linecap: square"/>
   </g>
   <g id="line2d_69">
    <path d="M 57.6 191.684841 
L 176.64 175.146551 
L 295.68 105.315383 
L 414.72 165.029235 
" clip-path="url(#p818928ebc7)" style="fill: none; stroke: #66c2a5; stroke-width: 1.5; stroke-linecap: square"/>
   </g>
   <g id="line2d_70">
    <path d="M 57.6 192.689622 
L 176.64 128.373171 
L 295.68 141.780766 
L 414.72 214.210102 
" clip-path="url(#p818928ebc7)" style="fill: none; stroke: #a6d854; stroke-width: 1.5; stroke-linecap: square"/>
   </g>
   <g id="line2d_71">
    <path d="M 57.6 133.368293 
L 176.64 212.512067 
L 295.68 187.084396 
L 414.72 97.796255 
" clip-path="url(#p818928ebc7)" style="fill: none; stroke: #66c2a5; stroke-width: 1.5; stroke-linecap: square"/>
   </g>
   <g id="line2d_72">
    <path d="M 57.6 237.624255 
L 176.64 248.383355 
L 295.68 172.407779 
L 414.72 219.300494 
" clip-path="url(#p818928ebc7)" style="fill: none; stroke: #a6d854; stroke-width: 1.5; stroke-linecap: square"/>
   </g>
   <g id="line2d_73">
    <path d="M 57.6 165.230516 
L 176.64 263.793315 
L 295.68 190.586448 
L 414.72 111.96867 
" clip-path="url(#p818928ebc7)" style="fill: none; stroke: #66c2a5; stroke-width: 1.5; stroke-linecap: square"/>
   </g>
   <g id="line2d_74">
    <path d="M 57.6 172.172809 
L 176.64 236.881931 
L 295.68 221.992253 
L 414.72 216.752687 
" clip-path="url(#p818928ebc7)" style="fill: none; stroke: #b3b3b3; stroke-width: 1.5; stroke-linecap: square"/>
   </g>
   <g id="line2d_75">
    <path d="M 57.6 235.530801 
L 176.64 157.793001 
L 295.68 152.957459 
L 414.72 260.984372 
" clip-path="url(#p818928ebc7)" style="fill: none; stroke: #a6d854; stroke-width: 1.5; stroke-linecap: square"/>
   </g>
   <g id="line2d_76">
    <path d="M 57.6 162.243032 
L 176.64 248.429847 
L 295.68 224.604785 
L 414.72 232.780101 
" clip-path="url(#p818928ebc7)" style="fill: none; stroke: #b3b3b3; stroke-width: 1.5; stroke-linecap: square"/>
   </g>
   <g id="line2d_77">
    <path d="M 57.6 200.981083 
L 176.64 189.144696 
L 295.68 123.338067 
L 414.72 160.79777 
" clip-path="url(#p818928ebc7)" style="fill: none; stroke: #66c2a5; stroke-width: 1.5; stroke-linecap: square"/>
   </g>
   <g id="line2d_78">
    <path d="M 57.6 94.102497 
L 176.64 125.796117 
L 295.68 225.155677 
L 414.72 56.795595 
" clip-path="url(#p818928ebc7)" style="fill: none; stroke: #66c2a5; stroke-width: 1.5; stroke-linecap: square"/>
   </g>
   <g id="line2d_79">
    <path d="M 57.6 226.827258 
L 176.64 177.527091 
L 295.68 182.319173 
L 414.72 208.979927 
" clip-path="url(#p818928ebc7)" style="fill: none; stroke: #b3b3b3; stroke-width: 1.5; stroke-linecap: square"/>
   </g>
   <g id="line2d_80">
    <path d="M 57.6 228.525368 
L 176.64 207.374542 
L 295.68 197.66283 
L 414.72 219.161425 
" clip-path="url(#p818928ebc7)" style="fill: none; stroke: #b3b3b3; stroke-width: 1.5; stroke-linecap: square"/>
   </g>
   <g id="line2d_81">
    <path d="M 57.6 167.639337 
L 176.64 211.440953 
L 295.68 240.562413 
L 414.72 239.416115 
" clip-path="url(#p818928ebc7)" style="fill: none; stroke: #b3b3b3; stroke-width: 1.5; stroke-linecap: square"/>
   </g>
   <g id="line2d_82">
    <path d="M 57.6 212.620059 
L 176.64 196.170276 
L 295.68 264.41944 
L 414.72 249.706837 
" clip-path="url(#p818928ebc7)" style="fill: none; stroke: #b3b3b3; stroke-width: 1.5; stroke-linecap: square"/>
   </g>
   <g id="line2d_83">
    <path d="M 57.6 206.513657 
L 176.64 156.659419 
L 295.68 202.841699 
L 414.72 94.781467 
" clip-path="url(#p818928ebc7)" style="fill: none; stroke: #66c2a5; stroke-width: 1.5; stroke-linecap: square"/>
   </g>
   <g id="line2d_84">
    <path d="M 57.6 178.406419 
L 176.64 126.321525 
L 295.68 239.333567 
L 414.72 239.285802 
" clip-path="url(#p818928ebc7)" style="fill: none; stroke: #b3b3b3; stroke-width: 1.5; stroke-linecap: square"/>
   </g>
   <g id="line2d_85">
    <path d="M 57.6 195.994045 
L 176.64 201.650244 
L 295.68 194.733168 
L 414.72 191.554448 
" clip-path="url(#p818928ebc7)" style="fill: none; stroke: #b3b3b3; stroke-width: 1.5; stroke-linecap: square"/>
   </g>
   <g id="line2d_86">
    <path d="M 57.6 199.580252 
L 176.64 169.334244 
L 295.68 101.586425 
L 414.72 248.946939 
" clip-path="url(#p818928ebc7)" style="fill: none; stroke: #a6d854; stroke-width: 1.5; stroke-linecap: square"/>
   </g>
   <g id="line2d_87">
    <path d="M 57.6 193.213491 
L 176.64 235.112431 
L 295.68 184.951951 
L 414.72 174.688525 
" clip-path="url(#p818928ebc7)" style="fill: none; stroke: #a6d854; stroke-width: 1.5; stroke-linecap: square"/>
   </g>
   <g id="line2d_88">
    <path d="M 57.6 139.009562 
L 176.64 188.55552 
L 295.68 161.731966 
L 414.72 182.855825 
" clip-path="url(#p818928ebc7)" style="fill: none; stroke: #a6d854; stroke-width: 1.5; stroke-linecap: square"/>
   </g>
   <g id="line2d_89">
    <path d="M 57.6 226.395899 
L 176.64 142.79103 
L 295.68 165.479667 
L 414.72 110.646643 
" clip-path="url(#p818928ebc7)" style="fill: none; stroke: #66c2a5; stroke-width: 1.5; stroke-linecap: square"/>
   </g>
   <g id="line2d_90">
    <path d="M 57.6 180.515355 
L 176.64 212.001489 
L 295.68 143.212481 
L 414.72 136.705668 
" clip-path="url(#p818928ebc7)" style="fill: none; stroke: #66c2a5; stroke-width: 1.5; stroke-linecap: square"/>
   </g>
   <g id="line2d_91">
    <path d="M 57.6 231.747997 
L 176.64 170.475621 
L 295.68 220.390495 
L 414.72 209.755605 
" clip-path="url(#p818928ebc7)" style="fill: none; stroke: #b3b3b3; stroke-width: 1.5; stroke-linecap: square"/>
   </g>
   <g id="line2d_92">
    <path d="M 57.6 187.60982 
L 176.64 190.530933 
L 295.68 252.767349 
L 414.72 221.599316 
" clip-path="url(#p818928ebc7)" style="fill: none; stroke: #b3b3b3; stroke-width: 1.5; stroke-linecap: square"/>
   </g>
   <g id="line2d_93">
    <path d="M 57.6 191.228026 
L 176.64 200.603845 
L 295.68 198.562485 
L 414.72 185.10982 
" clip-path="url(#p818928ebc7)" style="fill: none; stroke: #a6d854; stroke-width: 1.5; stroke-linecap: square"/>
   </g>
   <g id="line2d_94">
    <path d="M 57.6 167.65855 
L 176.64 187.643046 
L 295.68 173.274036 
L 414.72 120.380466 
" clip-path="url(#p818928ebc7)" style="fill: none; stroke: #66c2a5; stroke-width: 1.5; stroke-linecap: square"/>
   </g>
   <g id="line2d_95">
    <path d="M 57.6 147.29177 
L 176.64 107.625173 
L 295.68 163.060508 
L 414.72 214.879997 
" clip-path="url(#p818928ebc7)" style="fill: none; stroke: #a6d854; stroke-width: 1.5; stroke-linecap: square"/>
   </g>
   <g id="line2d_96">
    <path d="M 57.6 167.41921 
L 176.64 228.007279 
L 295.68 130.971189 
L 414.72 153.952978 
" clip-path="url(#p818928ebc7)" style="fill: none; stroke: #66c2a5; stroke-width: 1.5; stroke-linecap: square"/>
   </g>
   <g id="line2d_97">
    <path d="M 57.6 227.397037 
L 176.64 172.210439 
L 295.68 216.875443 
L 414.72 209.075821 
" clip-path="url(#p818928ebc7)" style="fill: none; stroke: #b3b3b3; stroke-width: 1.5; stroke-linecap: square"/>
   </g>
   <g id="line2d_98">
    <path d="M 57.6 181.981236 
L 176.64 185.778748 
L 295.68 144.392756 
L 414.72 239.200754 
" clip-path="url(#p818928ebc7)" style="fill: none; stroke: #a6d854; stroke-width: 1.5; stroke-linecap: square"/>
   </g>
   <g id="line2d_99">
    <path d="M 57.6 181.034781 
L 176.64 177.226936 
L 295.68 137.351247 
L 414.72 142.115195 
" clip-path="url(#p818928ebc7)" style="fill: none; stroke: #66c2a5; stroke-width: 1.5; stroke-linecap: square"/>
   </g>
   <g id="line2d_100">
    <path d="M 57.6 157.102077 
L 176.64 213.179095 
L 295.68 210.048539 
L 414.72 206.939444 
" clip-path="url(#p818928ebc7)" style="fill: none; stroke: #b3b3b3; stroke-width: 1.5; stroke-linecap: square"/>
   </g>
   <g id="line2d_101">
    <path d="M 57.6 175.17056 
L 176.64 221.624668 
L 295.68 219.775205 
L 414.72 220.267512 
" clip-path="url(#p818928ebc7)" style="fill: none; stroke: #b3b3b3; stroke-width: 1.5; stroke-linecap: square"/>
   </g>
   <g id="line2d_102">
    <path d="M 57.6 173.699102 
L 176.64 199.946048 
L 295.68 114.568824 
L 414.72 174.306572 
" clip-path="url(#p818928ebc7)" style="fill: none; stroke: #66c2a5; stroke-width: 1.5; stroke-linecap: square"/>
   </g>
   <g id="line2d_103">
    <path d="M 57.6 141.249665 
L 176.64 214.955678 
L 295.68 195.524711 
L 414.72 188.449004 
" clip-path="url(#p818928ebc7)" style="fill: none; stroke: #a6d854; stroke-width: 1.5; stroke-linecap: square"/>
   </g>
   <g id="line2d_104">
    <path d="M 57.6 161.941704 
L 176.64 194.420311 
L 295.68 118.134418 
L 414.72 229.763835 
" clip-path="url(#p818928ebc7)" style="fill: none; stroke: #a6d854; stroke-width: 1.5; stroke-linecap: square"/>
   </g>
   <g id="line2d_105">
    <path d="M 57.6 186.985372 
L 176.64 209.670715 
L 295.68 165.108351 
L 414.72 126.016136 
" clip-path="url(#p818928ebc7)" style="fill: none; stroke: #66c2a5; stroke-width: 1.5; stroke-linecap: square"/>
   </g>
   <g id="line2d_106">
    <path d="M 57.6 133.421696 
L 176.64 128.922597 
L 295.68 181.016424 
L 414.72 199.697719 
" clip-path="url(#p818928ebc7)" style="fill: none; stroke: #a6d854; stroke-width: 1.5; stroke-linecap: square"/>
   </g>
   <g id="line2d_107">
    <path d="M 57.6 184.401746 
L 176.64 223.411222 
L 295.68 108.49827 
L 414.72 176.823036 
" clip-path="url(#p818928ebc7)" style="fill: none; stroke: #66c2a5; stroke-width: 1.5; stroke-linecap: square"/>
   </g>
   <g id="line2d_108">
    <path d="M 57.6 190.320303 
L 176.64 128.250652 
L 295.68 112.612709 
L 414.72 231.064156 
" clip-path="url(#p818928ebc7)" style="fill: none; stroke: #a6d854; stroke-width: 1.5; stroke-linecap: square"/>
   </g>
   <g id="line2d_109">
    <path d="M 57.6 195.610727 
L 176.64 215.887728 
L 295.68 209.902415 
L 414.72 89.253093 
" clip-path="url(#p818928ebc7)" style="fill: none; stroke: #66c2a5; stroke-width: 1.5; stroke-linecap: square"/>
   </g>
   <g id="line2d_110">
    <path d="M 57.6 136.854603 
L 176.64 183.74549 
L 295.68 139.746526 
L 414.72 221.910941 
" clip-path="url(#p818928ebc7)" style="fill: none; stroke: #a6d854; stroke-width: 1.5; stroke-linecap: square"/>
   </g>
   <g id="line2d_111">
    <path d="M 57.6 130.852105 
L 176.64 158.610422 
L 295.68 120.707409 
L 414.72 150.886435 
" clip-path="url(#p818928ebc7)" style="fill: none; stroke: #66c2a5; stroke-width: 1.5; stroke-linecap: square"/>
   </g>
   <g id="line2d_112">
    <path d="M 57.6 183.089811 
L 176.64 230.938639 
L 295.68 197.263045 
L 414.72 230.881568 
" clip-path="url(#p818928ebc7)" style="fill: none; stroke: #b3b3b3; stroke-width: 1.5; stroke-linecap: square"/>
   </g>
   <g id="line2d_113">
    <path d="M 57.6 210.479203 
L 176.64 163.537245 
L 295.68 130.794063 
L 414.72 141.259785 
" clip-path="url(#p818928ebc7)" style="fill: none; stroke: #66c2a5; stroke-width: 1.5; stroke-linecap: square"/>
   </g>
   <g id="line2d_114">
    <path d="M 57.6 236.806366 
L 176.64 221.382987 
L 295.68 210.913217 
L 414.72 208.5292 
" clip-path="url(#p818928ebc7)" style="fill: none; stroke: #b3b3b3; stroke-width: 1.5; stroke-linecap: square"/>
   </g>
   <g id="line2d_115">
    <path d="M 57.6 199.087904 
L 176.64 161.721864 
L 295.68 146.984998 
L 414.72 121.91359 
" clip-path="url(#p818928ebc7)" style="fill: none; stroke: #66c2a5; stroke-width: 1.5; stroke-linecap: square"/>
   </g>
   <g id="line2d_116">
    <path d="M 57.6 132.390008 
L 176.64 184.301862 
L 295.68 154.431165 
L 414.72 139.498713 
" clip-path="url(#p818928ebc7)" style="fill: none; stroke: #66c2a5; stroke-width: 1.5; stroke-linecap: square"/>
   </g>
   <g id="line2d_117">
    <path d="M 57.6 192.46317 
L 176.64 221.246237 
L 295.68 155.014293 
L 414.72 190.322418 
" clip-path="url(#p818928ebc7)" style="fill: none; stroke: #a6d854; stroke-width: 1.5; stroke-linecap: square"/>
   </g>
   <g id="line2d_118">
    <path d="M 57.6 216.9047 
L 176.64 191.529379 
L 295.68 228.695712 
L 414.72 217.483331 
" clip-path="url(#p818928ebc7)" style="fill: none; stroke: #b3b3b3; stroke-width: 1.5; stroke-linecap: square"/>
   </g>
   <g id="line2d_119">
    <path d="M 57.6 167.00187 
L 176.64 163.549149 
L 295.68 99.152908 
L 414.72 218.195359 
" clip-path="url(#p818928ebc7)" style="fill: none; stroke: #a6d854; stroke-width: 1.5; stroke-linecap: square"/>
   </g>
   <g id="line2d_120">
    <path d="M 57.6 193.696306 
L 176.64 174.648701 
L 295.68 84.908891 
L 414.72 177.115683 
" clip-path="url(#p818928ebc7)" style="fill: none; stroke: #66c2a5; stroke-width: 1.5; stroke-linecap: square"/>
   </g>
   <g id="line2d_121">
    <path d="M 57.6 215.554801 
L 176.64 205.437995 
L 295.68 104.740731 
L 414.72 235.31562 
" clip-path="url(#p818928ebc7)" style="fill: none; stroke: #a6d854; stroke-width: 1.5; stroke-linecap: square"/>
   </g>
   <g id="line2d_122">
    <path d="M 57.6 192.898796 
L 176.64 174.106499 
L 295.68 231.656307 
L 414.72 218.245114 
" clip-path="url(#p818928ebc7)" style="fill: none; stroke: #b3b3b3; stroke-width: 1.5; stroke-linecap: square"/>
   </g>
   <g id="line2d_123">
    <path d="M 57.6 241.183328 
L 176.64 261.829526 
L 295.68 115.67144 
L 414.72 228.86574 
" clip-path="url(#p818928ebc7)" style="fill: none; stroke: #a6d854; stroke-width: 1.5; stroke-linecap: square"/>
   </g>
   <g id="line2d_124">
    <path d="M 57.6 189.235941 
L 176.64 227.914143 
L 295.68 173.367349 
L 414.72 207.855635 
" clip-path="url(#p818928ebc7)" style="fill: none; stroke: #a6d854; stroke-width: 1.5; stroke-linecap: square"/>
   </g>
   <g id="line2d_125">
    <path d="M 57.6 181.680724 
L 176.64 190.060874 
L 295.68 149.538749 
L 414.72 174.239827 
" clip-path="url(#p818928ebc7)" style="fill: none; stroke: #b3b3b3; stroke-width: 1.5; stroke-linecap: square"/>
   </g>
   <g id="line2d_126">
    <path d="M 57.6 203.403572 
L 176.64 253.626446 
L 295.68 144.774592 
L 414.72 146.989351 
" clip-path="url(#p818928ebc7)" style="fill: none; stroke: #66c2a5; stroke-width: 1.5; stroke-linecap: square"/>
   </g>
   <g id="line2d_127">
    <path d="M 57.6 159.221398 
L 176.64 257.487299 
L 295.68 182.100594 
L 414.72 88.895692 
" clip-path="url(#p818928ebc7)" style="fill: none; stroke: #66c2a5; stroke-width: 1.5; stroke-linecap: square"/>
   </g>
   <g id="line2d_128">
    <path d="M 57.6 172.671911 
L 176.64 181.102098 
L 295.68 166.751472 
L 414.72 138.836423 
" clip-path="url(#p818928ebc7)" style="fill: none; stroke: #66c2a5; stroke-width: 1.5; stroke-linecap: square"/>
   </g>
   <g id="line2d_129">
    <path d="M 57.6 184.975573 
L 176.64 168.870639 
L 295.68 146.097748 
L 414.72 184.02589 
" clip-path="url(#p818928ebc7)" style="fill: none; stroke: #a6d854; stroke-width: 1.5; stroke-linecap: square"/>
   </g>
   <g id="line2d_130">
    <path d="M 57.6 153.940498 
L 176.64 210.897783 
L 295.68 146.531119 
L 414.72 173.879234 
" clip-path="url(#p818928ebc7)" style="fill: none; stroke: #a6d854; stroke-width: 1.5; stroke-linecap: square"/>
   </g>
   <g id="line2d_131">
    <path d="M 57.6 81.590677 
L 176.64 204.902883 
L 295.68 118.359013 
L 414.72 227.518581 
" clip-path="url(#p818928ebc7)" style="fill: none; stroke: #a6d854; stroke-width: 1.5; stroke-linecap: square"/>
   </g>
   <g id="line2d_132">
    <path d="M 57.6 217.454962 
L 176.64 186.822773 
L 295.68 117.367966 
L 414.72 158.30746 
" clip-path="url(#p818928ebc7)" style="fill: none; stroke: #66c2a5; stroke-width: 1.5; stroke-linecap: square"/>
   </g>
   <g id="line2d_133">
    <path d="M 57.6 157.991603 
L 176.64 162.309882 
L 295.68 142.625472 
L 414.72 229.803043 
" clip-path="url(#p818928ebc7)" style="fill: none; stroke: #a6d854; stroke-width: 1.5; stroke-linecap: square"/>
   </g>
   <g id="line2d_134">
    <path d="M 57.6 213.08465 
L 176.64 148.498173 
L 295.68 101.33747 
L 414.72 183.351453 
" clip-path="url(#p818928ebc7)" style="fill: none; stroke: #66c2a5; stroke-width: 1.5; stroke-linecap: square"/>
   </g>
   <g id="line2d_135">
    <path d="M 57.6 129.328993 
L 176.64 135.894449 
L 295.68 176.251448 
L 414.72 110.87976 
" clip-path="url(#p818928ebc7)" style="fill: none; stroke: #66c2a5; stroke-width: 1.5; stroke-linecap: square"/>
   </g>
   <g id="line2d_136">
    <path d="M 57.6 170.65103 
L 176.64 180.026041 
L 295.68 138.159683 
L 414.72 237.521843 
" clip-path="url(#p818928ebc7)" style="fill: none; stroke: #a6d854; stroke-width: 1.5; stroke-linecap: square"/>
   </g>
   <g id="line2d_137">
    <path d="M 57.6 53.568 
L 176.64 142.818794 
L 295.68 160.95316 
L 414.72 109.64327 
" clip-path="url(#p818928ebc7)" style="fill: none; stroke: #66c2a5; stroke-width: 1.5; stroke-linecap: square"/>
   </g>
   <g id="line2d_138">
    <path d="M 57.6 198.123186 
L 176.64 215.814656 
L 295.68 217.181591 
L 414.72 227.235135 
" clip-path="url(#p818928ebc7)" style="fill: none; stroke: #b3b3b3; stroke-width: 1.5; stroke-linecap: square"/>
   </g>
   <g id="line2d_139">
    <path d="M 57.6 152.442388 
L 176.64 120.994801 
L 295.68 216.698562 
L 414.72 209.540277 
" clip-path="url(#p818928ebc7)" style="fill: none; stroke: #b3b3b3; stroke-width: 1.5; stroke-linecap: square"/>
   </g>
   <g id="line2d_140">
    <path d="M 57.6 205.69136 
L 176.64 214.076482 
L 295.68 153.241413 
L 414.72 216.92833 
" clip-path="url(#p818928ebc7)" style="fill: none; stroke: #a6d854; stroke-width: 1.5; stroke-linecap: square"/>
   </g>
   <g id="line2d_141">
    <path d="M 57.6 176.915328 
L 176.64 144.938993 
L 295.68 157.787579 
L 414.72 157.216873 
" clip-path="url(#p818928ebc7)" style="fill: none; stroke: #66c2a5; stroke-width: 1.5; stroke-linecap: square"/>
   </g>
   <g id="line2d_142">
    <path d="M 57.6 172.718027 
L 176.64 222.119956 
L 295.68 131.678439 
L 414.72 227.2225 
" clip-path="url(#p818928ebc7)" style="fill: none; stroke: #a6d854; stroke-width: 1.5; stroke-linecap: square"/>
   </g>
   <g id="line2d_143">
    <path d="M 57.6 126.324739 
L 176.64 170.826969 
L 295.68 237.147046 
L 414.72 247.220105 
" clip-path="url(#p818928ebc7)" style="fill: none; stroke: #b3b3b3; stroke-width: 1.5; stroke-linecap: square"/>
   </g>
   <g id="line2d_144">
    <path d="M 57.6 243.658612 
L 176.64 159.009832 
L 295.68 143.308346 
L 414.72 141.724171 
" clip-path="url(#p818928ebc7)" style="fill: none; stroke: #66c2a5; stroke-width: 1.5; stroke-linecap: square"/>
   </g>
   <g id="line2d_145">
    <path d="M 57.6 159.707673 
L 176.64 219.033356 
L 295.68 256.607863 
L 414.72 239.410418 
" clip-path="url(#p818928ebc7)" style="fill: none; stroke: #b3b3b3; stroke-width: 1.5; stroke-linecap: square"/>
   </g>
   <g id="line2d_146">
    <path d="M 57.6 217.151291 
L 176.64 107.617713 
L 295.68 152.09775 
L 414.72 167.19848 
" clip-path="url(#p818928ebc7)" style="fill: none; stroke: #66c2a5; stroke-width: 1.5; stroke-linecap: square"/>
   </g>
   <g id="line2d_147">
    <path d="M 57.6 222.288154 
L 176.64 185.112627 
L 295.68 212.836018 
L 414.72 210.088732 
" clip-path="url(#p818928ebc7)" style="fill: none; stroke: #b3b3b3; stroke-width: 1.5; stroke-linecap: square"/>
   </g>
   <g id="line2d_148">
    <path d="M 57.6 128.380569 
L 176.64 238.532239 
L 295.68 247.170235 
L 414.72 238.111541 
" clip-path="url(#p818928ebc7)" style="fill: none; stroke: #b3b3b3; stroke-width: 1.5; stroke-linecap: square"/>
   </g>
   <g id="line2d_149">
    <path d="M 57.6 189.15651 
L 176.64 264.746589 
L 295.68 210.966479 
L 414.72 212.232915 
" clip-path="url(#p818928ebc7)" style="fill: none; stroke: #b3b3b3; stroke-width: 1.5; stroke-linecap: square"/>
   </g>
   <g id="line2d_150">
    <path d="M 57.6 103.593545 
L 176.64 160.373478 
L 295.68 173.950615 
L 414.72 186.324641 
" clip-path="url(#p818928ebc7)" style="fill: none; stroke: #b3b3b3; stroke-width: 1.5; stroke-linecap: square"/>
   </g>
   <g id="line2d_151">
    <path d="M 57.6 145.794676 
L 176.64 203.872986 
L 295.68 99.946492 
L 414.72 182.257499 
" clip-path="url(#p818928ebc7)" style="fill: none; stroke: #66c2a5; stroke-width: 1.5; stroke-linecap: square"/>
   </g>
   <g id="line2d_152">
    <path d="M 57.6 212.562105 
L 176.64 140.004645 
L 295.68 128.728628 
L 414.72 256.022379 
" clip-path="url(#p818928ebc7)" style="fill: none; stroke: #a6d854; stroke-width: 1.5; stroke-linecap: square"/>
   </g>
   <g id="line2d_153">
    <path d="M 57.6 118.855445 
L 176.64 227.410336 
L 295.68 123.621819 
L 414.72 158.279553 
" clip-path="url(#p818928ebc7)" style="fill: none; stroke: #66c2a5; stroke-width: 1.5; stroke-linecap: square"/>
   </g>
   <g id="line2d_154">
    <path d="M 57.6 149.125597 
L 176.64 133.387099 
L 295.68 226.470073 
L 414.72 204.273313 
" clip-path="url(#p818928ebc7)" style="fill: none; stroke: #b3b3b3; stroke-width: 1.5; stroke-linecap: square"/>
   </g>
   <g id="line2d_155">
    <path d="M 57.6 263.222572 
L 176.64 177.961939 
L 295.68 173.851816 
L 414.72 93.691754 
" clip-path="url(#p818928ebc7)" style="fill: none; stroke: #66c2a5; stroke-width: 1.5; stroke-linecap: square"/>
   </g>
   <g id="line2d_156">
    <path d="M 57.6 210.033952 
L 176.64 180.920755 
L 295.68 217.703634 
L 414.72 186.230818 
" clip-path="url(#p818928ebc7)" style="fill: none; stroke: #b3b3b3; stroke-width: 1.5; stroke-linecap: square"/>
   </g>
   <g id="line2d_157">
    <path d="M 57.6 168.099039 
L 176.64 136.93611 
L 295.68 123.848533 
L 414.72 246.717222 
" clip-path="url(#p818928ebc7)" style="fill: none; stroke: #a6d854; stroke-width: 1.5; stroke-linecap: square"/>
   </g>
   <g id="line2d_158">
    <path d="M 57.6 124.659842 
L 176.64 152.399945 
L 295.68 211.90408 
L 414.72 213.808535 
" clip-path="url(#p818928ebc7)" style="fill: none; stroke: #b3b3b3; stroke-width: 1.5; stroke-linecap: square"/>
   </g>
   <g id="line2d_159">
    <path d="M 57.6 116.124579 
L 176.64 192.721343 
L 295.68 102.779895 
L 414.72 233.704973 
" clip-path="url(#p818928ebc7)" style="fill: none; stroke: #a6d854; stroke-width: 1.5; stroke-linecap: square"/>
   </g>
   <g id="line2d_160">
    <path d="M 57.6 170.153991 
L 176.64 199.228195 
L 295.68 155.461341 
L 414.72 126.155 
" clip-path="url(#p818928ebc7)" style="fill: none; stroke: #66c2a5; stroke-width: 1.5; stroke-linecap: square"/>
   </g>
   <g id="line2d_161">
    <path d="M 57.6 138.555121 
L 176.64 154.521729 
L 295.68 163.631279 
L 414.72 196.468703 
" clip-path="url(#p818928ebc7)" style="fill: none; stroke: #66c2a5; stroke-width: 1.5; stroke-linecap: square"/>
   </g>
   <g id="line2d_162">
    <path d="M 57.6 142.797486 
L 176.64 104.280613 
L 295.68 246.094588 
L 414.72 228.571692 
" clip-path="url(#p818928ebc7)" style="fill: none; stroke: #b3b3b3; stroke-width: 1.5; stroke-linecap: square"/>
   </g>
   <g id="line2d_163">
    <path d="M 57.6 188.708669 
L 176.64 179.730708 
L 295.68 218.224764 
L 414.72 222.295262 
" clip-path="url(#p818928ebc7)" style="fill: none; stroke: #b3b3b3; stroke-width: 1.5; stroke-linecap: square"/>
   </g>
   <g id="line2d_164">
    <path d="M 57.6 139.600849 
L 176.64 190.534405 
L 295.68 244.254584 
L 414.72 241.140355 
" clip-path="url(#p818928ebc7)" style="fill: none; stroke: #b3b3b3; stroke-width: 1.5; stroke-linecap: square"/>
   </g>
   <g id="line2d_165">
    <path d="M 57.6 207.261487 
L 176.64 160.472188 
L 295.68 188.88975 
L 414.72 198.590467 
" clip-path="url(#p818928ebc7)" style="fill: none; stroke: #b3b3b3; stroke-width: 1.5; stroke-linecap: square"/>
   </g>
   <g id="line2d_166">
    <path d="M 57.6 224.576313 
L 176.64 216.674673 
L 295.68 131.862918 
L 414.72 223.246509 
" clip-path="url(#p818928ebc7)" style="fill: none; stroke: #a6d854; stroke-width: 1.5; stroke-linecap: square"/>
   </g>
   <g id="line2d_167">
    <path d="M 57.6 246.417408 
L 176.64 201.165307 
L 295.68 174.409445 
L 414.72 103.460201 
" clip-path="url(#p818928ebc7)" style="fill: none; stroke: #66c2a5; stroke-width: 1.5; stroke-linecap: square"/>
   </g>
   <g id="line2d_168">
    <path d="M 57.6 256.554309 
L 176.64 163.199377 
L 295.68 108.735982 
L 414.72 233.16337 
" clip-path="url(#p818928ebc7)" style="fill: none; stroke: #a6d854; stroke-width: 1.5; stroke-linecap: square"/>
   </g>
   <g id="line2d_169">
    <path d="M 57.6 174.644329 
L 176.64 246.120249 
L 295.68 132.44438 
L 414.72 139.439666 
" clip-path="url(#p818928ebc7)" style="fill: none; stroke: #66c2a5; stroke-width: 1.5; stroke-linecap: square"/>
   </g>
   <g id="line2d_170">
    <path d="M 57.6 188.798552 
L 176.64 161.153897 
L 295.68 213.97788 
L 414.72 213.432268 
" clip-path="url(#p818928ebc7)" style="fill: none; stroke: #b3b3b3; stroke-width: 1.5; stroke-linecap: square"/>
   </g>
   <g id="line2d_171">
    <path d="M 57.6 184.636974 
L 176.64 126.581202 
L 295.68 218.812354 
L 414.72 221.138849 
" clip-path="url(#p818928ebc7)" style="fill: none; stroke: #b3b3b3; stroke-width: 1.5; stroke-linecap: square"/>
   </g>
   <g id="line2d_172">
    <path d="M 57.6 242.150842 
L 176.64 174.620993 
L 295.68 222.413941 
L 414.72 221.360618 
" clip-path="url(#p818928ebc7)" style="fill: none; stroke: #b3b3b3; stroke-width: 1.5; stroke-linecap: square"/>
   </g>
   <g id="line2d_173">
    <path d="M 57.6 307.584 
L 57.6 41.472 
" clip-path="url(#p818928ebc7)" style="fill: none; stroke: #000000; stroke-linecap: square"/>
   </g>
   <g id="line2d_174">
    <path d="M 176.64 307.584 
L 176.64 41.472 
" clip-path="url(#p818928ebc7)" style="fill: none; stroke: #000000; stroke-linecap: square"/>
   </g>
   <g id="line2d_175">
    <path d="M 295.68 307.584 
L 295.68 41.472 
" clip-path="url(#p818928ebc7)" style="fill: none; stroke: #000000; stroke-linecap: square"/>
   </g>
   <g id="line2d_176">
    <path d="M 414.72 307.584 
L 414.72 41.472 
" clip-path="url(#p818928ebc7)" style="fill: none; stroke: #000000; stroke-linecap: square"/>
   </g>
   <g id="patch_3">
    <path d="M 57.6 307.584 
L 57.6 41.472 
" style="fill: none; stroke: #000000; stroke-width: 0.8; stroke-linejoin: miter; stroke-linecap: square"/>
   </g>
   <g id="patch_4">
    <path d="M 414.72 307.584 
L 414.72 41.472 
" style="fill: none; stroke: #000000; stroke-width: 0.8; stroke-linejoin: miter; stroke-linecap: square"/>
   </g>
   <g id="patch_5">
    <path d="M 57.6 307.584 
L 414.72 307.584 
" style="fill: none; stroke: #000000; stroke-width: 0.8; stroke-linejoin: miter; stroke-linecap: square"/>
   </g>
   <g id="patch_6">
    <path d="M 57.6 41.472 
L 414.72 41.472 
" style="fill: none; stroke: #000000; stroke-width: 0.8; stroke-linejoin: miter; stroke-linecap: square"/>
   </g>
   <g id="legend_1">
    <g id="patch_7">
     <path d="M 359.816875 93.506375 
L 407.72 93.506375 
Q 409.72 93.506375 409.72 91.506375 
L 409.72 48.472 
Q 409.72 46.472 407.72 46.472 
L 359.816875 46.472 
Q 357.816875 46.472 357.816875 48.472 
L 357.816875 91.506375 
Q 357.816875 93.506375 359.816875 93.506375 
z
" style="fill: #ffffff; opacity: 0.8; stroke: #cccccc; stroke-linejoin: miter"/>
    </g>
    <g id="line2d_177">
     <path d="M 361.816875 54.570438 
L 371.816875 54.570438 
L 381.816875 54.570438 
" style="fill: none; stroke: #66c2a5; stroke-width: 1.5; stroke-linecap: square"/>
    </g>
    <g id="text_12">
     <!-- 1.0 -->
     <g transform="translate(389.816875 58.070438)scale(0.1 -0.1)">
      <defs>
       <path id="DejaVuSans-2e" d="M 684 794 
L 1344 794 
L 1344 0 
L 684 0 
L 684 794 
z
" transform="scale(0.015625)"/>
      </defs>
      <use xlink:href="#DejaVuSans-31"/>
      <use xlink:href="#DejaVuSans-2e" x="63.623047"/>
      <use xlink:href="#DejaVuSans-30" x="95.410156"/>
     </g>
    </g>
    <g id="line2d_178">
     <path d="M 361.816875 69.248563 
L 371.816875 69.248563 
L 381.816875 69.248563 
" style="fill: none; stroke: #a6d854; stroke-width: 1.5; stroke-linecap: square"/>
    </g>
    <g id="text_13">
     <!-- 2.0 -->
     <g transform="translate(389.816875 72.748563)scale(0.1 -0.1)">
      <use xlink:href="#DejaVuSans-32"/>
      <use xlink:href="#DejaVuSans-2e" x="63.623047"/>
      <use xlink:href="#DejaVuSans-30" x="95.410156"/>
     </g>
    </g>
    <g id="line2d_179">
     <path d="M 361.816875 83.926688 
L 371.816875 83.926688 
L 381.816875 83.926688 
" style="fill: none; stroke: #b3b3b3; stroke-width: 1.5; stroke-linecap: square"/>
    </g>
    <g id="text_14">
     <!-- 0.0 -->
     <g transform="translate(389.816875 87.426688)scale(0.1 -0.1)">
      <use xlink:href="#DejaVuSans-30"/>
      <use xlink:href="#DejaVuSans-2e" x="63.623047"/>
      <use xlink:href="#DejaVuSans-30" x="95.410156"/>
     </g>
    </g>
   </g>
  </g>
 </g>
 <defs>
  <clipPath id="p818928ebc7">
   <rect x="57.6" y="41.472" width="357.12" height="266.112"/>
  </clipPath>
 </defs>
</svg>
