<?xml version="1.0" encoding="utf-8" standalone="no"?>
<!DOCTYPE svg PUBLIC "-//W3C//DTD SVG 1.1//EN"
  "http://www.w3.org/Graphics/SVG/1.1/DTD/svg11.dtd">
<svg xmlns:xlink="http://www.w3.org/1999/xlink" width="460.8pt" height="345.6pt" viewBox="0 0 460.8 345.6" xmlns="http://www.w3.org/2000/svg" version="1.1">
 <metadata>
  <rdf:RDF xmlns:dc="http://purl.org/dc/elements/1.1/" xmlns:cc="http://creativecommons.org/ns#" xmlns:rdf="http://www.w3.org/1999/02/22-rdf-syntax-ns#">
   <cc:Work>
    <dc:type rdf:resource="http://purl.org/dc/dcmitype/StillImage"/>
    <dc:date>2022-03-01T00:00:05.681407</dc:date>
    <dc:format>image/svg+xml</dc:format>
    <dc:creator>
     <cc:Agent>
      <dc:title>Matplotlib v3.5.1, https://matplotlib.org/</dc:title>
     </cc:Agent>
    </dc:creator>
   </cc:Work>
  </rdf:RDF>
 </metadata>
 <defs>
  <style type="text/css">*{stroke-linejoin: round; stroke-linecap: butt}</style>
 </defs>
 <g id="figure_1">
  <g id="patch_1">
   <path d="M 0 345.6 
L 460.8 345.6 
L 460.8 0 
L 0 0 
L 0 345.6 
z
" style="fill: none"/>
  </g>
  <g id="axes_1">
   <g id="patch_2">
    <path d="M 57.6 307.584 
L 414.72 307.584 
L 414.72 41.472 
L 57.6 41.472 
L 57.6 307.584 
z
" style="fill: none"/>
   </g>
   <g id="matplotlib.axis_1">
    <g id="xtick_1">
     <g id="line2d_1">
      <path d="M 57.6 307.584 
L 57.6 41.472 
" clip-path="url(#p96a4753e01)" style="fill: none; stroke: #b0b0b0; stroke-width: 0.8; stroke-linecap: square"/>
     </g>
     <g id="line2d_2">
      <defs>
       <path id="m8a16d6c743" d="M 0 0 
L 0 3.5 
" style="stroke: #000000; stroke-width: 0.8"/>
      </defs>
      <g>
       <use xlink:href="#m8a16d6c743" x="57.6" y="307.584" style="stroke: #000000; stroke-width: 0.8"/>
      </g>
     </g>
     <g id="text_1">
      <!-- F0 -->
      <g transform="translate(51.542969 322.182437)scale(0.1 -0.1)">
       <defs>
        <path id="DejaVuSans-46" d="M 628 4666 
L 3309 4666 
L 3309 4134 
L 1259 4134 
L 1259 2759 
L 3109 2759 
L 3109 2228 
L 1259 2228 
L 1259 0 
L 628 0 
L 628 4666 
z
" transform="scale(0.015625)"/>
        <path id="DejaVuSans-30" d="M 2034 4250 
Q 1547 4250 1301 3770 
Q 1056 3291 1056 2328 
Q 1056 1369 1301 889 
Q 1547 409 2034 409 
Q 2525 409 2770 889 
Q 3016 1369 3016 2328 
Q 3016 3291 2770 3770 
Q 2525 4250 2034 4250 
z
M 2034 4750 
Q 2819 4750 3233 4129 
Q 3647 3509 3647 2328 
Q 3647 1150 3233 529 
Q 2819 -91 2034 -91 
Q 1250 -91 836 529 
Q 422 1150 422 2328 
Q 422 3509 836 4129 
Q 1250 4750 2034 4750 
z
" transform="scale(0.015625)"/>
       </defs>
       <use xlink:href="#DejaVuSans-46"/>
       <use xlink:href="#DejaVuSans-30" x="57.519531"/>
      </g>
     </g>
    </g>
    <g id="xtick_2">
     <g id="line2d_3">
      <path d="M 236.16 307.584 
L 236.16 41.472 
" clip-path="url(#p96a4753e01)" style="fill: none; stroke: #b0b0b0; stroke-width: 0.8; stroke-linecap: square"/>
     </g>
     <g id="line2d_4">
      <g>
       <use xlink:href="#m8a16d6c743" x="236.16" y="307.584" style="stroke: #000000; stroke-width: 0.8"/>
      </g>
     </g>
     <g id="text_2">
      <!-- F1 -->
      <g transform="translate(230.102969 322.182437)scale(0.1 -0.1)">
       <defs>
        <path id="DejaVuSans-31" d="M 794 531 
L 1825 531 
L 1825 4091 
L 703 3866 
L 703 4441 
L 1819 4666 
L 2450 4666 
L 2450 531 
L 3481 531 
L 3481 0 
L 794 0 
L 794 531 
z
" transform="scale(0.015625)"/>
       </defs>
       <use xlink:href="#DejaVuSans-46"/>
       <use xlink:href="#DejaVuSans-31" x="57.519531"/>
      </g>
     </g>
    </g>
    <g id="xtick_3">
     <g id="line2d_5">
      <path d="M 414.72 307.584 
L 414.72 41.472 
" clip-path="url(#p96a4753e01)" style="fill: none; stroke: #b0b0b0; stroke-width: 0.8; stroke-linecap: square"/>
     </g>
     <g id="line2d_6">
      <g>
       <use xlink:href="#m8a16d6c743" x="414.72" y="307.584" style="stroke: #000000; stroke-width: 0.8"/>
      </g>
     </g>
     <g id="text_3">
      <!-- F2 -->
      <g transform="translate(408.662969 322.182437)scale(0.1 -0.1)">
       <defs>
        <path id="DejaVuSans-32" d="M 1228 531 
L 3431 531 
L 3431 0 
L 469 0 
L 469 531 
Q 828 903 1448 1529 
Q 2069 2156 2228 2338 
Q 2531 2678 2651 2914 
Q 2772 3150 2772 3378 
Q 2772 3750 2511 3984 
Q 2250 4219 1831 4219 
Q 1534 4219 1204 4116 
Q 875 4013 500 3803 
L 500 4441 
Q 881 4594 1212 4672 
Q 1544 4750 1819 4750 
Q 2544 4750 2975 4387 
Q 3406 4025 3406 3419 
Q 3406 3131 3298 2873 
Q 3191 2616 2906 2266 
Q 2828 2175 2409 1742 
Q 1991 1309 1228 531 
z
" transform="scale(0.015625)"/>
       </defs>
       <use xlink:href="#DejaVuSans-46"/>
       <use xlink:href="#DejaVuSans-32" x="57.519531"/>
      </g>
     </g>
    </g>
   </g>
   <g id="matplotlib.axis_2">
    <g id="ytick_1">
     <g id="line2d_7">
      <path d="M 57.6 284.663523 
L 414.72 284.663523 
" clip-path="url(#p96a4753e01)" style="fill: none; stroke: #b0b0b0; stroke-width: 0.8; stroke-linecap: square"/>
     </g>
     <g id="line2d_8">
      <defs>
       <path id="md5498bd55a" d="M 0 0 
L -3.5 0 
" style="stroke: #000000; stroke-width: 0.8"/>
      </defs>
      <g>
       <use xlink:href="#md5498bd55a" x="57.6" y="284.663523" style="stroke: #000000; stroke-width: 0.8"/>
      </g>
     </g>
     <g id="text_4">
      <!-- −4 -->
      <g transform="translate(35.857813 288.462742)scale(0.1 -0.1)">
       <defs>
        <path id="DejaVuSans-2212" d="M 678 2272 
L 4684 2272 
L 4684 1741 
L 678 1741 
L 678 2272 
z
" transform="scale(0.015625)"/>
        <path id="DejaVuSans-34" d="M 2419 4116 
L 825 1625 
L 2419 1625 
L 2419 4116 
z
M 2253 4666 
L 3047 4666 
L 3047 1625 
L 3713 1625 
L 3713 1100 
L 3047 1100 
L 3047 0 
L 2419 0 
L 2419 1100 
L 313 1100 
L 313 1709 
L 2253 4666 
z
" transform="scale(0.015625)"/>
       </defs>
       <use xlink:href="#DejaVuSans-2212"/>
       <use xlink:href="#DejaVuSans-34" x="83.789062"/>
      </g>
     </g>
    </g>
    <g id="ytick_2">
     <g id="line2d_9">
      <path d="M 57.6 254.771867 
L 414.72 254.771867 
" clip-path="url(#p96a4753e01)" style="fill: none; stroke: #b0b0b0; stroke-width: 0.8; stroke-linecap: square"/>
     </g>
     <g id="line2d_10">
      <g>
       <use xlink:href="#md5498bd55a" x="57.6" y="254.771867" style="stroke: #000000; stroke-width: 0.8"/>
      </g>
     </g>
     <g id="text_5">
      <!-- −3 -->
      <g transform="translate(35.857813 258.571086)scale(0.1 -0.1)">
       <defs>
        <path id="DejaVuSans-33" d="M 2597 2516 
Q 3050 2419 3304 2112 
Q 3559 1806 3559 1356 
Q 3559 666 3084 287 
Q 2609 -91 1734 -91 
Q 1441 -91 1130 -33 
Q 819 25 488 141 
L 488 750 
Q 750 597 1062 519 
Q 1375 441 1716 441 
Q 2309 441 2620 675 
Q 2931 909 2931 1356 
Q 2931 1769 2642 2001 
Q 2353 2234 1838 2234 
L 1294 2234 
L 1294 2753 
L 1863 2753 
Q 2328 2753 2575 2939 
Q 2822 3125 2822 3475 
Q 2822 3834 2567 4026 
Q 2313 4219 1838 4219 
Q 1578 4219 1281 4162 
Q 984 4106 628 3988 
L 628 4550 
Q 988 4650 1302 4700 
Q 1616 4750 1894 4750 
Q 2613 4750 3031 4423 
Q 3450 4097 3450 3541 
Q 3450 3153 3228 2886 
Q 3006 2619 2597 2516 
z
" transform="scale(0.015625)"/>
       </defs>
       <use xlink:href="#DejaVuSans-2212"/>
       <use xlink:href="#DejaVuSans-33" x="83.789062"/>
      </g>
     </g>
    </g>
    <g id="ytick_3">
     <g id="line2d_11">
      <path d="M 57.6 224.880211 
L 414.72 224.880211 
" clip-path="url(#p96a4753e01)" style="fill: none; stroke: #b0b0b0; stroke-width: 0.8; stroke-linecap: square"/>
     </g>
     <g id="line2d_12">
      <g>
       <use xlink:href="#md5498bd55a" x="57.6" y="224.880211" style="stroke: #000000; stroke-width: 0.8"/>
      </g>
     </g>
     <g id="text_6">
      <!-- −2 -->
      <g transform="translate(35.857813 228.679429)scale(0.1 -0.1)">
       <use xlink:href="#DejaVuSans-2212"/>
       <use xlink:href="#DejaVuSans-32" x="83.789062"/>
      </g>
     </g>
    </g>
    <g id="ytick_4">
     <g id="line2d_13">
      <path d="M 57.6 194.988554 
L 414.72 194.988554 
" clip-path="url(#p96a4753e01)" style="fill: none; stroke: #b0b0b0; stroke-width: 0.8; stroke-linecap: square"/>
     </g>
     <g id="line2d_14">
      <g>
       <use xlink:href="#md5498bd55a" x="57.6" y="194.988554" style="stroke: #000000; stroke-width: 0.8"/>
      </g>
     </g>
     <g id="text_7">
      <!-- −1 -->
      <g transform="translate(35.857813 198.787773)scale(0.1 -0.1)">
       <use xlink:href="#DejaVuSans-2212"/>
       <use xlink:href="#DejaVuSans-31" x="83.789062"/>
      </g>
     </g>
    </g>
    <g id="ytick_5">
     <g id="line2d_15">
      <path d="M 57.6 165.096898 
L 414.72 165.096898 
" clip-path="url(#p96a4753e01)" style="fill: none; stroke: #b0b0b0; stroke-width: 0.8; stroke-linecap: square"/>
     </g>
     <g id="line2d_16">
      <g>
       <use xlink:href="#md5498bd55a" x="57.6" y="165.096898" style="stroke: #000000; stroke-width: 0.8"/>
      </g>
     </g>
     <g id="text_8">
      <!-- 0 -->
      <g transform="translate(44.2375 168.896117)scale(0.1 -0.1)">
       <use xlink:href="#DejaVuSans-30"/>
      </g>
     </g>
    </g>
    <g id="ytick_6">
     <g id="line2d_17">
      <path d="M 57.6 135.205242 
L 414.72 135.205242 
" clip-path="url(#p96a4753e01)" style="fill: none; stroke: #b0b0b0; stroke-width: 0.8; stroke-linecap: square"/>
     </g>
     <g id="line2d_18">
      <g>
       <use xlink:href="#md5498bd55a" x="57.6" y="135.205242" style="stroke: #000000; stroke-width: 0.8"/>
      </g>
     </g>
     <g id="text_9">
      <!-- 1 -->
      <g transform="translate(44.2375 139.00446)scale(0.1 -0.1)">
       <use xlink:href="#DejaVuSans-31"/>
      </g>
     </g>
    </g>
    <g id="ytick_7">
     <g id="line2d_19">
      <path d="M 57.6 105.313585 
L 414.72 105.313585 
" clip-path="url(#p96a4753e01)" style="fill: none; stroke: #b0b0b0; stroke-width: 0.8; stroke-linecap: square"/>
     </g>
     <g id="line2d_20">
      <g>
       <use xlink:href="#md5498bd55a" x="57.6" y="105.313585" style="stroke: #000000; stroke-width: 0.8"/>
      </g>
     </g>
     <g id="text_10">
      <!-- 2 -->
      <g transform="translate(44.2375 109.112804)scale(0.1 -0.1)">
       <use xlink:href="#DejaVuSans-32"/>
      </g>
     </g>
    </g>
    <g id="ytick_8">
     <g id="line2d_21">
      <path d="M 57.6 75.421929 
L 414.72 75.421929 
" clip-path="url(#p96a4753e01)" style="fill: none; stroke: #b0b0b0; stroke-width: 0.8; stroke-linecap: square"/>
     </g>
     <g id="line2d_22">
      <g>
       <use xlink:href="#md5498bd55a" x="57.6" y="75.421929" style="stroke: #000000; stroke-width: 0.8"/>
      </g>
     </g>
     <g id="text_11">
      <!-- 3 -->
      <g transform="translate(44.2375 79.221148)scale(0.1 -0.1)">
       <use xlink:href="#DejaVuSans-33"/>
      </g>
     </g>
    </g>
    <g id="ytick_9">
     <g id="line2d_23">
      <path d="M 57.6 45.530273 
L 414.72 45.530273 
" clip-path="url(#p96a4753e01)" style="fill: none; stroke: #b0b0b0; stroke-width: 0.8; stroke-linecap: square"/>
     </g>
     <g id="line2d_24">
      <g>
       <use xlink:href="#md5498bd55a" x="57.6" y="45.530273" style="stroke: #000000; stroke-width: 0.8"/>
      </g>
     </g>
     <g id="text_12">
      <!-- 4 -->
      <g transform="translate(44.2375 49.329492)scale(0.1 -0.1)">
       <use xlink:href="#DejaVuSans-34"/>
      </g>
     </g>
    </g>
   </g>
   <g id="line2d_25">
    <path d="M 57.6 201.713144 
L 236.16 209.420751 
L 414.72 121.767683 
" clip-path="url(#p96a4753e01)" style="fill: none; stroke: #66c2a5; stroke-width: 1.5; stroke-linecap: square"/>
   </g>
   <g id="line2d_26">
    <path d="M 57.6 133.248268 
L 236.16 114.468474 
L 414.72 193.156707 
" clip-path="url(#p96a4753e01)" style="fill: none; stroke: #a6d854; stroke-width: 1.5; stroke-linecap: square"/>
   </g>
   <g id="line2d_27">
    <path d="M 57.6 136.023817 
L 236.16 112.197012 
L 414.72 199.521612 
" clip-path="url(#p96a4753e01)" style="fill: none; stroke: #a6d854; stroke-width: 1.5; stroke-linecap: square"/>
   </g>
   <g id="line2d_28">
    <path d="M 57.6 190.08958 
L 236.16 228.607477 
L 414.72 139.677029 
" clip-path="url(#p96a4753e01)" style="fill: none; stroke: #66c2a5; stroke-width: 1.5; stroke-linecap: square"/>
   </g>
   <g id="line2d_29">
    <path d="M 57.6 204.589868 
L 236.16 158.108008 
L 414.72 115.792599 
" clip-path="url(#p96a4753e01)" style="fill: none; stroke: #66c2a5; stroke-width: 1.5; stroke-linecap: square"/>
   </g>
   <g id="line2d_30">
    <path d="M 57.6 201.366074 
L 236.16 202.558998 
L 414.72 110.375472 
" clip-path="url(#p96a4753e01)" style="fill: none; stroke: #66c2a5; stroke-width: 1.5; stroke-linecap: square"/>
   </g>
   <g id="line2d_31">
    <path d="M 57.6 136.110854 
L 236.16 95.513887 
L 414.72 204.73318 
" clip-path="url(#p96a4753e01)" style="fill: none; stroke: #a6d854; stroke-width: 1.5; stroke-linecap: square"/>
   </g>
   <g id="line2d_32">
    <path d="M 57.6 136.727077 
L 236.16 108.869067 
L 414.72 199.121937 
" clip-path="url(#p96a4753e01)" style="fill: none; stroke: #a6d854; stroke-width: 1.5; stroke-linecap: square"/>
   </g>
   <g id="line2d_33">
    <path d="M 57.6 196.69624 
L 236.16 158.120681 
L 414.72 126.00438 
" clip-path="url(#p96a4753e01)" style="fill: none; stroke: #66c2a5; stroke-width: 1.5; stroke-linecap: square"/>
   </g>
   <g id="line2d_34">
    <path d="M 57.6 182.517207 
L 236.16 218.852856 
L 414.72 143.069832 
" clip-path="url(#p96a4753e01)" style="fill: none; stroke: #66c2a5; stroke-width: 1.5; stroke-linecap: square"/>
   </g>
   <g id="line2d_35">
    <path d="M 57.6 225.173521 
L 236.16 140.690348 
L 414.72 94.844 
" clip-path="url(#p96a4753e01)" style="fill: none; stroke: #66c2a5; stroke-width: 1.5; stroke-linecap: square"/>
   </g>
   <g id="line2d_36">
    <path d="M 57.6 128.335221 
L 236.16 101.930874 
L 414.72 197.411472 
" clip-path="url(#p96a4753e01)" style="fill: none; stroke: #a6d854; stroke-width: 1.5; stroke-linecap: square"/>
   </g>
   <g id="line2d_37">
    <path d="M 57.6 138.835877 
L 236.16 82.63714 
L 414.72 196.131296 
" clip-path="url(#p96a4753e01)" style="fill: none; stroke: #a6d854; stroke-width: 1.5; stroke-linecap: square"/>
   </g>
   <g id="line2d_38">
    <path d="M 57.6 143.242892 
L 236.16 193.883086 
L 414.72 145.707267 
" clip-path="url(#p96a4753e01)" style="fill: none; stroke: #b3b3b3; stroke-width: 1.5; stroke-linecap: square"/>
   </g>
   <g id="line2d_39">
    <path d="M 57.6 119.481145 
L 236.16 228.817295 
L 414.72 138.812299 
" clip-path="url(#p96a4753e01)" style="fill: none; stroke: #b3b3b3; stroke-width: 1.5; stroke-linecap: square"/>
   </g>
   <g id="line2d_40">
    <path d="M 57.6 147.237374 
L 236.16 116.270585 
L 414.72 211.171562 
" clip-path="url(#p96a4753e01)" style="fill: none; stroke: #a6d854; stroke-width: 1.5; stroke-linecap: square"/>
   </g>
   <g id="line2d_41">
    <path d="M 57.6 121.606041 
L 236.16 212.559685 
L 414.72 141.120966 
" clip-path="url(#p96a4753e01)" style="fill: none; stroke: #b3b3b3; stroke-width: 1.5; stroke-linecap: square"/>
   </g>
   <g id="line2d_42">
    <path d="M 57.6 136.479878 
L 236.16 139.591101 
L 414.72 181.576575 
" clip-path="url(#p96a4753e01)" style="fill: none; stroke: #a6d854; stroke-width: 1.5; stroke-linecap: square"/>
   </g>
   <g id="line2d_43">
    <path d="M 57.6 171.346268 
L 236.16 285.516471 
L 414.72 176.446308 
" clip-path="url(#p96a4753e01)" style="fill: none; stroke: #66c2a5; stroke-width: 1.5; stroke-linecap: square"/>
   </g>
   <g id="line2d_44">
    <path d="M 57.6 53.568 
L 236.16 277.062489 
L 414.72 81.287126 
" clip-path="url(#p96a4753e01)" style="fill: none; stroke: #b3b3b3; stroke-width: 1.5; stroke-linecap: square"/>
   </g>
   <g id="line2d_45">
    <path d="M 57.6 186.673133 
L 236.16 199.440797 
L 414.72 145.826579 
" clip-path="url(#p96a4753e01)" style="fill: none; stroke: #66c2a5; stroke-width: 1.5; stroke-linecap: square"/>
   </g>
   <g id="line2d_46">
    <path d="M 57.6 142.136376 
L 236.16 189.107457 
L 414.72 134.192633 
" clip-path="url(#p96a4753e01)" style="fill: none; stroke: #b3b3b3; stroke-width: 1.5; stroke-linecap: square"/>
   </g>
   <g id="line2d_47">
    <path d="M 57.6 199.444177 
L 236.16 167.758634 
L 414.72 133.129048 
" clip-path="url(#p96a4753e01)" style="fill: none; stroke: #66c2a5; stroke-width: 1.5; stroke-linecap: square"/>
   </g>
   <g id="line2d_48">
    <path d="M 57.6 151.321432 
L 236.16 154.719279 
L 414.72 211.603249 
" clip-path="url(#p96a4753e01)" style="fill: none; stroke: #a6d854; stroke-width: 1.5; stroke-linecap: square"/>
   </g>
   <g id="line2d_49">
    <path d="M 57.6 115.077022 
L 236.16 114.742154 
L 414.72 181.656988 
" clip-path="url(#p96a4753e01)" style="fill: none; stroke: #a6d854; stroke-width: 1.5; stroke-linecap: square"/>
   </g>
   <g id="line2d_50">
    <path d="M 57.6 156.949668 
L 236.16 197.542109 
L 414.72 158.224164 
" clip-path="url(#p96a4753e01)" style="fill: none; stroke: #b3b3b3; stroke-width: 1.5; stroke-linecap: square"/>
   </g>
   <g id="line2d_51">
    <path d="M 57.6 136.157664 
L 236.16 196.950697 
L 414.72 195.492523 
" clip-path="url(#p96a4753e01)" style="fill: none; stroke: #a6d854; stroke-width: 1.5; stroke-linecap: square"/>
   </g>
   <g id="line2d_52">
    <path d="M 57.6 138.678014 
L 236.16 185.597601 
L 414.72 132.948551 
" clip-path="url(#p96a4753e01)" style="fill: none; stroke: #b3b3b3; stroke-width: 1.5; stroke-linecap: square"/>
   </g>
   <g id="line2d_53">
    <path d="M 57.6 183.422808 
L 236.16 154.587718 
L 414.72 165.203372 
" clip-path="url(#p96a4753e01)" style="fill: none; stroke: #b3b3b3; stroke-width: 1.5; stroke-linecap: square"/>
   </g>
   <g id="line2d_54">
    <path d="M 57.6 135.986094 
L 236.16 168.599195 
L 414.72 179.119078 
" clip-path="url(#p96a4753e01)" style="fill: none; stroke: #a6d854; stroke-width: 1.5; stroke-linecap: square"/>
   </g>
   <g id="line2d_55">
    <path d="M 57.6 200.172167 
L 236.16 171.683027 
L 414.72 123.234199 
" clip-path="url(#p96a4753e01)" style="fill: none; stroke: #66c2a5; stroke-width: 1.5; stroke-linecap: square"/>
   </g>
   <g id="line2d_56">
    <path d="M 57.6 101.61192 
L 236.16 199.81097 
L 414.72 100.942838 
" clip-path="url(#p96a4753e01)" style="fill: none; stroke: #b3b3b3; stroke-width: 1.5; stroke-linecap: square"/>
   </g>
   <g id="line2d_57">
    <path d="M 57.6 136.205786 
L 236.16 94.551985 
L 414.72 206.965913 
" clip-path="url(#p96a4753e01)" style="fill: none; stroke: #a6d854; stroke-width: 1.5; stroke-linecap: square"/>
   </g>
   <g id="line2d_58">
    <path d="M 57.6 156.609335 
L 236.16 243.45824 
L 414.72 187.852373 
" clip-path="url(#p96a4753e01)" style="fill: none; stroke: #66c2a5; stroke-width: 1.5; stroke-linecap: square"/>
   </g>
   <g id="line2d_59">
    <path d="M 57.6 236.614388 
L 236.16 153.625323 
L 414.72 99.117149 
" clip-path="url(#p96a4753e01)" style="fill: none; stroke: #66c2a5; stroke-width: 1.5; stroke-linecap: square"/>
   </g>
   <g id="line2d_60">
    <path d="M 57.6 136.583018 
L 236.16 123.471469 
L 414.72 199.317998 
" clip-path="url(#p96a4753e01)" style="fill: none; stroke: #a6d854; stroke-width: 1.5; stroke-linecap: square"/>
   </g>
   <g id="line2d_61">
    <path d="M 57.6 165.42142 
L 236.16 173.384999 
L 414.72 155.947476 
" clip-path="url(#p96a4753e01)" style="fill: none; stroke: #b3b3b3; stroke-width: 1.5; stroke-linecap: square"/>
   </g>
   <g id="line2d_62">
    <path d="M 57.6 65.56973 
L 236.16 235.057851 
L 414.72 75.129387 
" clip-path="url(#p96a4753e01)" style="fill: none; stroke: #b3b3b3; stroke-width: 1.5; stroke-linecap: square"/>
   </g>
   <g id="line2d_63">
    <path d="M 57.6 213.045885 
L 236.16 133.672168 
L 414.72 120.82124 
" clip-path="url(#p96a4753e01)" style="fill: none; stroke: #66c2a5; stroke-width: 1.5; stroke-linecap: square"/>
   </g>
   <g id="line2d_64">
    <path d="M 57.6 141.308275 
L 236.16 172.646676 
L 414.72 196.669219 
" clip-path="url(#p96a4753e01)" style="fill: none; stroke: #a6d854; stroke-width: 1.5; stroke-linecap: square"/>
   </g>
   <g id="line2d_65">
    <path d="M 57.6 223.925355 
L 236.16 177.118237 
L 414.72 98.302295 
" clip-path="url(#p96a4753e01)" style="fill: none; stroke: #66c2a5; stroke-width: 1.5; stroke-linecap: square"/>
   </g>
   <g id="line2d_66">
    <path d="M 57.6 128.756494 
L 236.16 203.214293 
L 414.72 137.027727 
" clip-path="url(#p96a4753e01)" style="fill: none; stroke: #b3b3b3; stroke-width: 1.5; stroke-linecap: square"/>
   </g>
   <g id="line2d_67">
    <path d="M 57.6 187.042289 
L 236.16 197.740211 
L 414.72 157.119189 
" clip-path="url(#p96a4753e01)" style="fill: none; stroke: #66c2a5; stroke-width: 1.5; stroke-linecap: square"/>
   </g>
   <g id="line2d_68">
    <path d="M 57.6 97.106431 
L 236.16 223.758796 
L 414.72 111.765891 
" clip-path="url(#p96a4753e01)" style="fill: none; stroke: #b3b3b3; stroke-width: 1.5; stroke-linecap: square"/>
   </g>
   <g id="line2d_69">
    <path d="M 57.6 130.920929 
L 236.16 146.733593 
L 414.72 193.66333 
" clip-path="url(#p96a4753e01)" style="fill: none; stroke: #a6d854; stroke-width: 1.5; stroke-linecap: square"/>
   </g>
   <g id="line2d_70">
    <path d="M 57.6 216.475421 
L 236.16 155.670361 
L 414.72 105.966014 
" clip-path="url(#p96a4753e01)" style="fill: none; stroke: #66c2a5; stroke-width: 1.5; stroke-linecap: square"/>
   </g>
   <g id="line2d_71">
    <path d="M 57.6 119.535676 
L 236.16 218.487687 
L 414.72 136.33268 
" clip-path="url(#p96a4753e01)" style="fill: none; stroke: #b3b3b3; stroke-width: 1.5; stroke-linecap: square"/>
   </g>
   <g id="line2d_72">
    <path d="M 57.6 142.718069 
L 236.16 197.959809 
L 414.72 146.809608 
" clip-path="url(#p96a4753e01)" style="fill: none; stroke: #b3b3b3; stroke-width: 1.5; stroke-linecap: square"/>
   </g>
   <g id="line2d_73">
    <path d="M 57.6 150.719855 
L 236.16 182.530154 
L 414.72 149.723543 
" clip-path="url(#p96a4753e01)" style="fill: none; stroke: #b3b3b3; stroke-width: 1.5; stroke-linecap: square"/>
   </g>
   <g id="line2d_74">
    <path d="M 57.6 186.318718 
L 236.16 158.588755 
L 414.72 161.514924 
" clip-path="url(#p96a4753e01)" style="fill: none; stroke: #66c2a5; stroke-width: 1.5; stroke-linecap: square"/>
   </g>
   <g id="line2d_75">
    <path d="M 57.6 128.211663 
L 236.16 99.19858 
L 414.72 189.039973 
" clip-path="url(#p96a4753e01)" style="fill: none; stroke: #a6d854; stroke-width: 1.5; stroke-linecap: square"/>
   </g>
   <g id="line2d_76">
    <path d="M 57.6 95.089676 
L 236.16 239.157851 
L 414.72 116.521898 
" clip-path="url(#p96a4753e01)" style="fill: none; stroke: #b3b3b3; stroke-width: 1.5; stroke-linecap: square"/>
   </g>
   <g id="line2d_77">
    <path d="M 57.6 111.208646 
L 236.16 185.637722 
L 414.72 102.297929 
" clip-path="url(#p96a4753e01)" style="fill: none; stroke: #b3b3b3; stroke-width: 1.5; stroke-linecap: square"/>
   </g>
   <g id="line2d_78">
    <path d="M 57.6 141.525945 
L 236.16 137.193439 
L 414.72 200.772571 
" clip-path="url(#p96a4753e01)" style="fill: none; stroke: #a6d854; stroke-width: 1.5; stroke-linecap: square"/>
   </g>
   <g id="line2d_79">
    <path d="M 57.6 193.127159 
L 236.16 204.441958 
L 414.72 143.398737 
" clip-path="url(#p96a4753e01)" style="fill: none; stroke: #66c2a5; stroke-width: 1.5; stroke-linecap: square"/>
   </g>
   <g id="line2d_80">
    <path d="M 57.6 190.77546 
L 236.16 152.178425 
L 414.72 142.458215 
" clip-path="url(#p96a4753e01)" style="fill: none; stroke: #66c2a5; stroke-width: 1.5; stroke-linecap: square"/>
   </g>
   <g id="line2d_81">
    <path d="M 57.6 136.690927 
L 236.16 213.48561 
L 414.72 188.769663 
" clip-path="url(#p96a4753e01)" style="fill: none; stroke: #a6d854; stroke-width: 1.5; stroke-linecap: square"/>
   </g>
   <g id="line2d_82">
    <path d="M 57.6 150.710072 
L 236.16 177.189907 
L 414.72 143.375407 
" clip-path="url(#p96a4753e01)" style="fill: none; stroke: #b3b3b3; stroke-width: 1.5; stroke-linecap: square"/>
   </g>
   <g id="line2d_83">
    <path d="M 57.6 145.605094 
L 236.16 162.217522 
L 414.72 200.786187 
" clip-path="url(#p96a4753e01)" style="fill: none; stroke: #a6d854; stroke-width: 1.5; stroke-linecap: square"/>
   </g>
   <g id="line2d_84">
    <path d="M 57.6 141.338573 
L 236.16 190.914515 
L 414.72 204.090008 
" clip-path="url(#p96a4753e01)" style="fill: none; stroke: #a6d854; stroke-width: 1.5; stroke-linecap: square"/>
   </g>
   <g id="line2d_85">
    <path d="M 57.6 189.562992 
L 236.16 186.883938 
L 414.72 140.533554 
" clip-path="url(#p96a4753e01)" style="fill: none; stroke: #66c2a5; stroke-width: 1.5; stroke-linecap: square"/>
   </g>
   <g id="line2d_86">
    <path d="M 57.6 213.554458 
L 236.16 186.100925 
L 414.72 105.182551 
" clip-path="url(#p96a4753e01)" style="fill: none; stroke: #66c2a5; stroke-width: 1.5; stroke-linecap: square"/>
   </g>
   <g id="line2d_87">
    <path d="M 57.6 171.796639 
L 236.16 242.00105 
L 414.72 171.853235 
" clip-path="url(#p96a4753e01)" style="fill: none; stroke: #66c2a5; stroke-width: 1.5; stroke-linecap: square"/>
   </g>
   <g id="line2d_88">
    <path d="M 57.6 144.475553 
L 236.16 82.441079 
L 414.72 218.902771 
" clip-path="url(#p96a4753e01)" style="fill: none; stroke: #a6d854; stroke-width: 1.5; stroke-linecap: square"/>
   </g>
   <g id="line2d_89">
    <path d="M 57.6 148.085464 
L 236.16 156.160311 
L 414.72 202.4874 
" clip-path="url(#p96a4753e01)" style="fill: none; stroke: #a6d854; stroke-width: 1.5; stroke-linecap: square"/>
   </g>
   <g id="line2d_90">
    <path d="M 57.6 179.748455 
L 236.16 192.219502 
L 414.72 149.083828 
" clip-path="url(#p96a4753e01)" style="fill: none; stroke: #66c2a5; stroke-width: 1.5; stroke-linecap: square"/>
   </g>
   <g id="line2d_91">
    <path d="M 57.6 140.161703 
L 236.16 108.211181 
L 414.72 198.478932 
" clip-path="url(#p96a4753e01)" style="fill: none; stroke: #a6d854; stroke-width: 1.5; stroke-linecap: square"/>
   </g>
   <g id="line2d_92">
    <path d="M 57.6 100.214631 
L 236.16 219.933034 
L 414.72 108.698119 
" clip-path="url(#p96a4753e01)" style="fill: none; stroke: #b3b3b3; stroke-width: 1.5; stroke-linecap: square"/>
   </g>
   <g id="line2d_93">
    <path d="M 57.6 213.600793 
L 236.16 200.364735 
L 414.72 112.334716 
" clip-path="url(#p96a4753e01)" style="fill: none; stroke: #66c2a5; stroke-width: 1.5; stroke-linecap: square"/>
   </g>
   <g id="line2d_94">
    <path d="M 57.6 133.027238 
L 236.16 146.837791 
L 414.72 108.064232 
" clip-path="url(#p96a4753e01)" style="fill: none; stroke: #b3b3b3; stroke-width: 1.5; stroke-linecap: square"/>
   </g>
   <g id="line2d_95">
    <path d="M 57.6 117.253949 
L 236.16 180.871172 
L 414.72 103.221416 
" clip-path="url(#p96a4753e01)" style="fill: none; stroke: #b3b3b3; stroke-width: 1.5; stroke-linecap: square"/>
   </g>
   <g id="line2d_96">
    <path d="M 57.6 159.519277 
L 236.16 162.58594 
L 414.72 225.91263 
" clip-path="url(#p96a4753e01)" style="fill: none; stroke: #a6d854; stroke-width: 1.5; stroke-linecap: square"/>
   </g>
   <g id="line2d_97">
    <path d="M 57.6 209.473358 
L 236.16 141.874679 
L 414.72 123.28372 
" clip-path="url(#p96a4753e01)" style="fill: none; stroke: #66c2a5; stroke-width: 1.5; stroke-linecap: square"/>
   </g>
   <g id="line2d_98">
    <path d="M 57.6 166.379932 
L 236.16 232.120689 
L 414.72 202.679442 
" clip-path="url(#p96a4753e01)" style="fill: none; stroke: #a6d854; stroke-width: 1.5; stroke-linecap: square"/>
   </g>
   <g id="line2d_99">
    <path d="M 57.6 198.142156 
L 236.16 141.079711 
L 414.72 139.927151 
" clip-path="url(#p96a4753e01)" style="fill: none; stroke: #66c2a5; stroke-width: 1.5; stroke-linecap: square"/>
   </g>
   <g id="line2d_100">
    <path d="M 57.6 167.022594 
L 236.16 152.294172 
L 414.72 154.231446 
" clip-path="url(#p96a4753e01)" style="fill: none; stroke: #b3b3b3; stroke-width: 1.5; stroke-linecap: square"/>
   </g>
   <g id="line2d_101">
    <path d="M 57.6 145.556948 
L 236.16 211.089911 
L 414.72 155.476935 
" clip-path="url(#p96a4753e01)" style="fill: none; stroke: #b3b3b3; stroke-width: 1.5; stroke-linecap: square"/>
   </g>
   <g id="line2d_102">
    <path d="M 57.6 106.963676 
L 236.16 223.235024 
L 414.72 110.079085 
" clip-path="url(#p96a4753e01)" style="fill: none; stroke: #b3b3b3; stroke-width: 1.5; stroke-linecap: square"/>
   </g>
   <g id="line2d_103">
    <path d="M 57.6 168.182087 
L 236.16 164.903429 
L 414.72 164.707776 
" clip-path="url(#p96a4753e01)" style="fill: none; stroke: #b3b3b3; stroke-width: 1.5; stroke-linecap: square"/>
   </g>
   <g id="line2d_104">
    <path d="M 57.6 220.304671 
L 236.16 167.031349 
L 414.72 98.259521 
" clip-path="url(#p96a4753e01)" style="fill: none; stroke: #66c2a5; stroke-width: 1.5; stroke-linecap: square"/>
   </g>
   <g id="line2d_105">
    <path d="M 57.6 184.018634 
L 236.16 225.378242 
L 414.72 155.178113 
" clip-path="url(#p96a4753e01)" style="fill: none; stroke: #66c2a5; stroke-width: 1.5; stroke-linecap: square"/>
   </g>
   <g id="line2d_106">
    <path d="M 57.6 219.946017 
L 236.16 121.23654 
L 414.72 97.624765 
" clip-path="url(#p96a4753e01)" style="fill: none; stroke: #66c2a5; stroke-width: 1.5; stroke-linecap: square"/>
   </g>
   <g id="line2d_107">
    <path d="M 57.6 151.576545 
L 236.16 159.006265 
L 414.72 132.838759 
" clip-path="url(#p96a4753e01)" style="fill: none; stroke: #b3b3b3; stroke-width: 1.5; stroke-linecap: square"/>
   </g>
   <g id="line2d_108">
    <path d="M 57.6 143.067571 
L 236.16 165.78016 
L 414.72 200.483001 
" clip-path="url(#p96a4753e01)" style="fill: none; stroke: #a6d854; stroke-width: 1.5; stroke-linecap: square"/>
   </g>
   <g id="line2d_109">
    <path d="M 57.6 215.234229 
L 236.16 132.544626 
L 414.72 126.434021 
" clip-path="url(#p96a4753e01)" style="fill: none; stroke: #66c2a5; stroke-width: 1.5; stroke-linecap: square"/>
   </g>
   <g id="line2d_110">
    <path d="M 57.6 142.959482 
L 236.16 195.235557 
L 414.72 147.024793 
" clip-path="url(#p96a4753e01)" style="fill: none; stroke: #b3b3b3; stroke-width: 1.5; stroke-linecap: square"/>
   </g>
   <g id="line2d_111">
    <path d="M 57.6 176.574781 
L 236.16 227.023572 
L 414.72 150.295749 
" clip-path="url(#p96a4753e01)" style="fill: none; stroke: #66c2a5; stroke-width: 1.5; stroke-linecap: square"/>
   </g>
   <g id="line2d_112">
    <path d="M 57.6 127.065384 
L 236.16 189.186228 
L 414.72 120.008346 
" clip-path="url(#p96a4753e01)" style="fill: none; stroke: #b3b3b3; stroke-width: 1.5; stroke-linecap: square"/>
   </g>
   <g id="line2d_113">
    <path d="M 57.6 111.802041 
L 236.16 228.537497 
L 414.72 129.105366 
" clip-path="url(#p96a4753e01)" style="fill: none; stroke: #b3b3b3; stroke-width: 1.5; stroke-linecap: square"/>
   </g>
   <g id="line2d_114">
    <path d="M 57.6 150.465561 
L 236.16 162.978164 
L 414.72 139.096393 
" clip-path="url(#p96a4753e01)" style="fill: none; stroke: #b3b3b3; stroke-width: 1.5; stroke-linecap: square"/>
   </g>
   <g id="line2d_115">
    <path d="M 57.6 120.543709 
L 236.16 87.683861 
L 414.72 183.656787 
" clip-path="url(#p96a4753e01)" style="fill: none; stroke: #a6d854; stroke-width: 1.5; stroke-linecap: square"/>
   </g>
   <g id="line2d_116">
    <path d="M 57.6 102.882268 
L 236.16 237.530477 
L 414.72 117.102423 
" clip-path="url(#p96a4753e01)" style="fill: none; stroke: #b3b3b3; stroke-width: 1.5; stroke-linecap: square"/>
   </g>
   <g id="line2d_117">
    <path d="M 57.6 196.904589 
L 236.16 192.060796 
L 414.72 133.381523 
" clip-path="url(#p96a4753e01)" style="fill: none; stroke: #66c2a5; stroke-width: 1.5; stroke-linecap: square"/>
   </g>
   <g id="line2d_118">
    <path d="M 57.6 109.164131 
L 236.16 109.350014 
L 414.72 188.571006 
" clip-path="url(#p96a4753e01)" style="fill: none; stroke: #a6d854; stroke-width: 1.5; stroke-linecap: square"/>
   </g>
   <g id="line2d_119">
    <path d="M 57.6 135.179687 
L 236.16 72.746238 
L 414.72 210.716628 
" clip-path="url(#p96a4753e01)" style="fill: none; stroke: #a6d854; stroke-width: 1.5; stroke-linecap: square"/>
   </g>
   <g id="line2d_120">
    <path d="M 57.6 105.319579 
L 236.16 120.027751 
L 414.72 168.612696 
" clip-path="url(#p96a4753e01)" style="fill: none; stroke: #a6d854; stroke-width: 1.5; stroke-linecap: square"/>
   </g>
   <g id="line2d_121">
    <path d="M 57.6 223.066367 
L 236.16 136.116611 
L 414.72 111.394239 
" clip-path="url(#p96a4753e01)" style="fill: none; stroke: #66c2a5; stroke-width: 1.5; stroke-linecap: square"/>
   </g>
   <g id="line2d_122">
    <path d="M 57.6 133.808669 
L 236.16 74.442877 
L 414.72 200.114966 
" clip-path="url(#p96a4753e01)" style="fill: none; stroke: #a6d854; stroke-width: 1.5; stroke-linecap: square"/>
   </g>
   <g id="line2d_123">
    <path d="M 57.6 162.868465 
L 236.16 231.557278 
L 414.72 185.338662 
" clip-path="url(#p96a4753e01)" style="fill: none; stroke: #66c2a5; stroke-width: 1.5; stroke-linecap: square"/>
   </g>
   <g id="line2d_124">
    <path d="M 57.6 211.104633 
L 236.16 136.519203 
L 414.72 196.253662 
" clip-path="url(#p96a4753e01)" style="fill: none; stroke: #b3b3b3; stroke-width: 1.5; stroke-linecap: square"/>
   </g>
   <g id="line2d_125">
    <path d="M 57.6 199.455928 
L 236.16 219.913055 
L 414.72 128.460389 
" clip-path="url(#p96a4753e01)" style="fill: none; stroke: #66c2a5; stroke-width: 1.5; stroke-linecap: square"/>
   </g>
   <g id="line2d_126">
    <path d="M 57.6 154.763141 
L 236.16 277.443038 
L 414.72 178.594206 
" clip-path="url(#p96a4753e01)" style="fill: none; stroke: #66c2a5; stroke-width: 1.5; stroke-linecap: square"/>
   </g>
   <g id="line2d_127">
    <path d="M 57.6 215.812436 
L 236.16 133.09763 
L 414.72 99.8864 
" clip-path="url(#p96a4753e01)" style="fill: none; stroke: #66c2a5; stroke-width: 1.5; stroke-linecap: square"/>
   </g>
   <g id="line2d_128">
    <path d="M 57.6 122.600027 
L 236.16 213.178164 
L 414.72 130.212172 
" clip-path="url(#p96a4753e01)" style="fill: none; stroke: #b3b3b3; stroke-width: 1.5; stroke-linecap: square"/>
   </g>
   <g id="line2d_129">
    <path d="M 57.6 129.208021 
L 236.16 179.229672 
L 414.72 179.324343 
" clip-path="url(#p96a4753e01)" style="fill: none; stroke: #a6d854; stroke-width: 1.5; stroke-linecap: square"/>
   </g>
   <g id="line2d_130">
    <path d="M 57.6 128.885441 
L 236.16 78.449821 
L 414.72 193.453641 
" clip-path="url(#p96a4753e01)" style="fill: none; stroke: #a6d854; stroke-width: 1.5; stroke-linecap: square"/>
   </g>
   <g id="line2d_131">
    <path d="M 57.6 149.144549 
L 236.16 199.068358 
L 414.72 152.478603 
" clip-path="url(#p96a4753e01)" style="fill: none; stroke: #b3b3b3; stroke-width: 1.5; stroke-linecap: square"/>
   </g>
   <g id="line2d_132">
    <path d="M 57.6 180.058148 
L 236.16 222.764196 
L 414.72 150.348497 
" clip-path="url(#p96a4753e01)" style="fill: none; stroke: #66c2a5; stroke-width: 1.5; stroke-linecap: square"/>
   </g>
   <g id="line2d_133">
    <path d="M 57.6 144.152397 
L 236.16 69.013484 
L 414.72 217.069057 
" clip-path="url(#p96a4753e01)" style="fill: none; stroke: #a6d854; stroke-width: 1.5; stroke-linecap: square"/>
   </g>
   <g id="line2d_134">
    <path d="M 57.6 144.121533 
L 236.16 200.288129 
L 414.72 147.164691 
" clip-path="url(#p96a4753e01)" style="fill: none; stroke: #b3b3b3; stroke-width: 1.5; stroke-linecap: square"/>
   </g>
   <g id="line2d_135">
    <path d="M 57.6 184.441439 
L 236.16 196.776976 
L 414.72 147.525953 
" clip-path="url(#p96a4753e01)" style="fill: none; stroke: #66c2a5; stroke-width: 1.5; stroke-linecap: square"/>
   </g>
   <g id="line2d_136">
    <path d="M 57.6 142.931594 
L 236.16 158.845175 
L 414.72 123.744164 
" clip-path="url(#p96a4753e01)" style="fill: none; stroke: #b3b3b3; stroke-width: 1.5; stroke-linecap: square"/>
   </g>
   <g id="line2d_137">
    <path d="M 57.6 146.483589 
L 236.16 163.375567 
L 414.72 212.310558 
" clip-path="url(#p96a4753e01)" style="fill: none; stroke: #a6d854; stroke-width: 1.5; stroke-linecap: square"/>
   </g>
   <g id="line2d_138">
    <path d="M 57.6 183.015631 
L 236.16 235.914203 
L 414.72 143.081162 
" clip-path="url(#p96a4753e01)" style="fill: none; stroke: #66c2a5; stroke-width: 1.5; stroke-linecap: square"/>
   </g>
   <g id="line2d_139">
    <path d="M 57.6 131.153339 
L 236.16 113.908492 
L 414.72 186.81231 
" clip-path="url(#p96a4753e01)" style="fill: none; stroke: #a6d854; stroke-width: 1.5; stroke-linecap: square"/>
   </g>
   <g id="line2d_140">
    <path d="M 57.6 187.218492 
L 236.16 295.488 
L 414.72 127.303629 
" clip-path="url(#p96a4753e01)" style="fill: none; stroke: #66c2a5; stroke-width: 1.5; stroke-linecap: square"/>
   </g>
   <g id="line2d_141">
    <path d="M 57.6 154.431208 
L 236.16 197.4157 
L 414.72 207.887612 
" clip-path="url(#p96a4753e01)" style="fill: none; stroke: #a6d854; stroke-width: 1.5; stroke-linecap: square"/>
   </g>
   <g id="line2d_142">
    <path d="M 57.6 132.168247 
L 236.16 187.450174 
L 414.72 127.187445 
" clip-path="url(#p96a4753e01)" style="fill: none; stroke: #b3b3b3; stroke-width: 1.5; stroke-linecap: square"/>
   </g>
   <g id="line2d_143">
    <path d="M 57.6 182.856999 
L 236.16 215.0098 
L 414.72 147.334175 
" clip-path="url(#p96a4753e01)" style="fill: none; stroke: #66c2a5; stroke-width: 1.5; stroke-linecap: square"/>
   </g>
   <g id="line2d_144">
    <path d="M 57.6 186.949675 
L 236.16 244.876696 
L 414.72 134.405565 
" clip-path="url(#p96a4753e01)" style="fill: none; stroke: #66c2a5; stroke-width: 1.5; stroke-linecap: square"/>
   </g>
   <g id="line2d_145">
    <path d="M 57.6 159.322429 
L 236.16 155.978266 
L 414.72 213.089819 
" clip-path="url(#p96a4753e01)" style="fill: none; stroke: #a6d854; stroke-width: 1.5; stroke-linecap: square"/>
   </g>
   <g id="line2d_146">
    <path d="M 57.6 156.614864 
L 236.16 167.456546 
L 414.72 208.456511 
" clip-path="url(#p96a4753e01)" style="fill: none; stroke: #a6d854; stroke-width: 1.5; stroke-linecap: square"/>
   </g>
   <g id="line2d_147">
    <path d="M 57.6 171.070405 
L 236.16 183.22475 
L 414.72 171.508437 
" clip-path="url(#p96a4753e01)" style="fill: none; stroke: #b3b3b3; stroke-width: 1.5; stroke-linecap: square"/>
   </g>
   <g id="line2d_148">
    <path d="M 57.6 122.221456 
L 236.16 112.94273 
L 414.72 187.914781 
" clip-path="url(#p96a4753e01)" style="fill: none; stroke: #a6d854; stroke-width: 1.5; stroke-linecap: square"/>
   </g>
   <g id="line2d_149">
    <path d="M 57.6 200.423201 
L 236.16 176.63101 
L 414.72 133.909402 
" clip-path="url(#p96a4753e01)" style="fill: none; stroke: #66c2a5; stroke-width: 1.5; stroke-linecap: square"/>
   </g>
   <g id="line2d_150">
    <path d="M 57.6 134.29527 
L 236.16 172.16917 
L 414.72 185.142878 
" clip-path="url(#p96a4753e01)" style="fill: none; stroke: #a6d854; stroke-width: 1.5; stroke-linecap: square"/>
   </g>
   <g id="line2d_151">
    <path d="M 57.6 156.36956 
L 236.16 162.985171 
L 414.72 145.264749 
" clip-path="url(#p96a4753e01)" style="fill: none; stroke: #b3b3b3; stroke-width: 1.5; stroke-linecap: square"/>
   </g>
   <g id="line2d_152">
    <path d="M 57.6 207.604223 
L 236.16 142.359658 
L 414.72 126.955198 
" clip-path="url(#p96a4753e01)" style="fill: none; stroke: #66c2a5; stroke-width: 1.5; stroke-linecap: square"/>
   </g>
   <g id="line2d_153">
    <path d="M 57.6 162.739948 
L 236.16 133.975371 
L 414.72 231.055695 
" clip-path="url(#p96a4753e01)" style="fill: none; stroke: #a6d854; stroke-width: 1.5; stroke-linecap: square"/>
   </g>
   <g id="line2d_154">
    <path d="M 57.6 95.080212 
L 236.16 228.594057 
L 414.72 101.818584 
" clip-path="url(#p96a4753e01)" style="fill: none; stroke: #b3b3b3; stroke-width: 1.5; stroke-linecap: square"/>
   </g>
   <g id="line2d_155">
    <path d="M 57.6 112.571012 
L 236.16 126.691586 
L 414.72 174.486452 
" clip-path="url(#p96a4753e01)" style="fill: none; stroke: #a6d854; stroke-width: 1.5; stroke-linecap: square"/>
   </g>
   <g id="line2d_156">
    <path d="M 57.6 138.53816 
L 236.16 86.249657 
L 414.72 200.828963 
" clip-path="url(#p96a4753e01)" style="fill: none; stroke: #a6d854; stroke-width: 1.5; stroke-linecap: square"/>
   </g>
   <g id="line2d_157">
    <path d="M 57.6 171.714738 
L 236.16 199.431564 
L 414.72 176.075914 
" clip-path="url(#p96a4753e01)" style="fill: none; stroke: #66c2a5; stroke-width: 1.5; stroke-linecap: square"/>
   </g>
   <g id="line2d_158">
    <path d="M 57.6 131.942056 
L 236.16 184.067937 
L 414.72 123.934974 
" clip-path="url(#p96a4753e01)" style="fill: none; stroke: #b3b3b3; stroke-width: 1.5; stroke-linecap: square"/>
   </g>
   <g id="line2d_159">
    <path d="M 57.6 141.577021 
L 236.16 209.303938 
L 414.72 141.184624 
" clip-path="url(#p96a4753e01)" style="fill: none; stroke: #b3b3b3; stroke-width: 1.5; stroke-linecap: square"/>
   </g>
   <g id="line2d_160">
    <path d="M 57.6 147.635706 
L 236.16 104.882001 
L 414.72 217.111899 
" clip-path="url(#p96a4753e01)" style="fill: none; stroke: #a6d854; stroke-width: 1.5; stroke-linecap: square"/>
   </g>
   <g id="line2d_161">
    <path d="M 57.6 156.718521 
L 236.16 169.288391 
L 414.72 149.65472 
" clip-path="url(#p96a4753e01)" style="fill: none; stroke: #b3b3b3; stroke-width: 1.5; stroke-linecap: square"/>
   </g>
   <g id="line2d_162">
    <path d="M 57.6 132.715791 
L 236.16 174.657066 
L 414.72 117.248079 
" clip-path="url(#p96a4753e01)" style="fill: none; stroke: #b3b3b3; stroke-width: 1.5; stroke-linecap: square"/>
   </g>
   <g id="line2d_163">
    <path d="M 57.6 207.62702 
L 236.16 209.906155 
L 414.72 121.369 
" clip-path="url(#p96a4753e01)" style="fill: none; stroke: #66c2a5; stroke-width: 1.5; stroke-linecap: square"/>
   </g>
   <g id="line2d_164">
    <path d="M 57.6 134.009727 
L 236.16 187.588959 
L 414.72 126.887312 
" clip-path="url(#p96a4753e01)" style="fill: none; stroke: #b3b3b3; stroke-width: 1.5; stroke-linecap: square"/>
   </g>
   <g id="line2d_165">
    <path d="M 57.6 138.234214 
L 236.16 138.917396 
L 414.72 190.578628 
" clip-path="url(#p96a4753e01)" style="fill: none; stroke: #a6d854; stroke-width: 1.5; stroke-linecap: square"/>
   </g>
   <g id="line2d_166">
    <path d="M 57.6 157.04144 
L 236.16 189.759149 
L 414.72 155.994518 
" clip-path="url(#p96a4753e01)" style="fill: none; stroke: #b3b3b3; stroke-width: 1.5; stroke-linecap: square"/>
   </g>
   <g id="line2d_167">
    <path d="M 57.6 116.123897 
L 236.16 119.464973 
L 414.72 175.320611 
" clip-path="url(#p96a4753e01)" style="fill: none; stroke: #a6d854; stroke-width: 1.5; stroke-linecap: square"/>
   </g>
   <g id="line2d_168">
    <path d="M 57.6 201.905459 
L 236.16 200.381411 
L 414.72 123.663845 
" clip-path="url(#p96a4753e01)" style="fill: none; stroke: #66c2a5; stroke-width: 1.5; stroke-linecap: square"/>
   </g>
   <g id="line2d_169">
    <path d="M 57.6 104.560525 
L 236.16 234.254382 
L 414.72 117.151608 
" clip-path="url(#p96a4753e01)" style="fill: none; stroke: #b3b3b3; stroke-width: 1.5; stroke-linecap: square"/>
   </g>
   <g id="line2d_170">
    <path d="M 57.6 107.578659 
L 236.16 229.523289 
L 414.72 114.652381 
" clip-path="url(#p96a4753e01)" style="fill: none; stroke: #b3b3b3; stroke-width: 1.5; stroke-linecap: square"/>
   </g>
   <g id="line2d_171">
    <path d="M 57.6 126.301959 
L 236.16 137.441444 
L 414.72 188.87988 
" clip-path="url(#p96a4753e01)" style="fill: none; stroke: #a6d854; stroke-width: 1.5; stroke-linecap: square"/>
   </g>
   <g id="line2d_172">
    <path d="M 57.6 184.838206 
L 236.16 200.370615 
L 414.72 153.076524 
" clip-path="url(#p96a4753e01)" style="fill: none; stroke: #66c2a5; stroke-width: 1.5; stroke-linecap: square"/>
   </g>
   <g id="line2d_173">
    <path d="M 57.6 145.071881 
L 236.16 108.396665 
L 414.72 199.519863 
" clip-path="url(#p96a4753e01)" style="fill: none; stroke: #a6d854; stroke-width: 1.5; stroke-linecap: square"/>
   </g>
   <g id="line2d_174">
    <path d="M 57.6 162.6862 
L 236.16 160.556785 
L 414.72 154.154245 
" clip-path="url(#p96a4753e01)" style="fill: none; stroke: #b3b3b3; stroke-width: 1.5; stroke-linecap: square"/>
   </g>
   <g id="line2d_175">
    <path d="M 57.6 307.584 
L 57.6 41.472 
" clip-path="url(#p96a4753e01)" style="fill: none; stroke: #000000; stroke-linecap: square"/>
   </g>
   <g id="line2d_176">
    <path d="M 236.16 307.584 
L 236.16 41.472 
" clip-path="url(#p96a4753e01)" style="fill: none; stroke: #000000; stroke-linecap: square"/>
   </g>
   <g id="line2d_177">
    <path d="M 414.72 307.584 
L 414.72 41.472 
" clip-path="url(#p96a4753e01)" style="fill: none; stroke: #000000; stroke-linecap: square"/>
   </g>
   <g id="patch_3">
    <path d="M 57.6 307.584 
L 57.6 41.472 
" style="fill: none; stroke: #000000; stroke-width: 0.8; stroke-linejoin: miter; stroke-linecap: square"/>
   </g>
   <g id="patch_4">
    <path d="M 414.72 307.584 
L 414.72 41.472 
" style="fill: none; stroke: #000000; stroke-width: 0.8; stroke-linejoin: miter; stroke-linecap: square"/>
   </g>
   <g id="patch_5">
    <path d="M 57.6 307.584 
L 414.72 307.584 
" style="fill: none; stroke: #000000; stroke-width: 0.8; stroke-linejoin: miter; stroke-linecap: square"/>
   </g>
   <g id="patch_6">
    <path d="M 57.6 41.472 
L 414.72 41.472 
" style="fill: none; stroke: #000000; stroke-width: 0.8; stroke-linejoin: miter; stroke-linecap: square"/>
   </g>
   <g id="legend_1">
    <g id="patch_7">
     <path d="M 359.816875 93.506375 
L 407.72 93.506375 
Q 409.72 93.506375 409.72 91.506375 
L 409.72 48.472 
Q 409.72 46.472 407.72 46.472 
L 359.816875 46.472 
Q 357.816875 46.472 357.816875 48.472 
L 357.816875 91.506375 
Q 357.816875 93.506375 359.816875 93.506375 
z
" style="fill: #ffffff; opacity: 0.8; stroke: #cccccc; stroke-linejoin: miter"/>
    </g>
    <g id="line2d_178">
     <path d="M 361.816875 54.570438 
L 371.816875 54.570438 
L 381.816875 54.570438 
" style="fill: none; stroke: #66c2a5; stroke-width: 1.5; stroke-linecap: square"/>
    </g>
    <g id="text_13">
     <!-- 2.0 -->
     <g transform="translate(389.816875 58.070438)scale(0.1 -0.1)">
      <defs>
       <path id="DejaVuSans-2e" d="M 684 794 
L 1344 794 
L 1344 0 
L 684 0 
L 684 794 
z
" transform="scale(0.015625)"/>
      </defs>
      <use xlink:href="#DejaVuSans-32"/>
      <use xlink:href="#DejaVuSans-2e" x="63.623047"/>
      <use xlink:href="#DejaVuSans-30" x="95.410156"/>
     </g>
    </g>
    <g id="line2d_179">
     <path d="M 361.816875 69.248563 
L 371.816875 69.248563 
L 381.816875 69.248563 
" style="fill: none; stroke: #a6d854; stroke-width: 1.5; stroke-linecap: square"/>
    </g>
    <g id="text_14">
     <!-- 1.0 -->
     <g transform="translate(389.816875 72.748563)scale(0.1 -0.1)">
      <use xlink:href="#DejaVuSans-31"/>
      <use xlink:href="#DejaVuSans-2e" x="63.623047"/>
      <use xlink:href="#DejaVuSans-30" x="95.410156"/>
     </g>
    </g>
    <g id="line2d_180">
     <path d="M 361.816875 83.926688 
L 371.816875 83.926688 
L 381.816875 83.926688 
" style="fill: none; stroke: #b3b3b3; stroke-width: 1.5; stroke-linecap: square"/>
    </g>
    <g id="text_15">
     <!-- 0.0 -->
     <g transform="translate(389.816875 87.426688)scale(0.1 -0.1)">
      <use xlink:href="#DejaVuSans-30"/>
      <use xlink:href="#DejaVuSans-2e" x="63.623047"/>
      <use xlink:href="#DejaVuSans-30" x="95.410156"/>
     </g>
    </g>
   </g>
  </g>
 </g>
 <defs>
  <clipPath id="p96a4753e01">
   <rect x="57.6" y="41.472" width="357.12" height="266.112"/>
  </clipPath>
 </defs>
</svg>
